<?xml version="1.0" encoding="UTF-8" standalone="no"?><!DOCTYPE svg PUBLIC "-//W3C//DTD SVG 1.1//EN" "http://www.w3.org/Graphics/SVG/1.1/DTD/svg11.dtd"><svg width="100%" height="100%" viewBox="0 0 800 600" version="1.1" xmlns="http://www.w3.org/2000/svg" xmlns:xlink="http://www.w3.org/1999/xlink" xml:space="preserve" xmlns:serif="http://www.serif.com/" style="fill-rule:evenodd;clip-rule:evenodd;stroke-linejoin:round;stroke-miterlimit:2;"><g><g><path d="M178.007,598.698c2.603,0 5.206,-2.603 7.809,-3.904c2.603,-1.302 7.809,-2.603 16.919,-2.603c13.016,-1.302 19.523,-2.603 23.428,-6.508c3.904,-2.603 15.618,-5.206 23.427,-5.206c7.809,0 20.824,-2.603 26.03,-5.206c1.302,-1.301 5.206,-2.603 10.413,-3.904c3.904,-1.302 7.809,-2.603 7.809,-2.603l1.301,-1.302l0,1.302l2.603,-2.603c1.302,-1.302 3.905,-2.604 5.206,-1.302l2.603,0l-1.301,-1.302l0,-2.603l3.904,0l0,2.603l-1.301,2.604l1.301,0c0,0 2.603,-1.302 3.905,-2.604l2.603,-1.301l0,3.905l7.809,2.603l0,-2.603l0,-1.302l2.603,1.302l1.302,0l0,-1.302l0,-1.302l2.603,0l0,5.207l1.301,-2.603l0,-1.302l2.603,1.302l1.302,1.301l1.301,-2.603l2.603,-1.302l0,3.905l1.302,-2.603l1.301,-2.603l0,6.508l1.302,-2.603l0,-1.302l3.904,1.302l2.603,0l1.302,-2.604l0,-1.301l3.904,3.905l2.604,-1.302l2.603,0l0,-32.538c0,-29.935 0,-33.839 1.301,-39.046c1.302,-3.904 2.603,-9.11 2.603,-10.412c1.302,-5.206 1.302,-6.507 5.206,-14.316c1.302,-2.603 1.302,-6.508 2.603,-9.111l0,-5.206l-1.301,0c0,0 -2.603,-1.302 -3.905,-2.603l-2.603,-2.603l0,-2.603l1.302,-1.302l-1.302,0l-1.301,0l1.301,-1.301l1.302,-2.603l-1.302,-1.302l1.302,0l1.301,1.302l1.302,-1.302l0,-1.301l2.603,1.301l1.301,1.302l0,-2.603l0,-3.905l-1.301,1.302l-1.302,0l0,-1.302l1.302,-1.301l2.603,0l1.301,1.301l0,-2.603l-1.301,-1.301l2.603,-1.302l1.301,0l-1.301,-1.301l0,-1.302l3.904,0l0,-2.603l0,-1.302l1.302,-1.301l2.603,0l-1.302,-1.302l0,-1.301l2.603,0l0,-2.603l1.302,-1.302l-2.603,0c-5.206,1.302 -6.508,-6.507 -1.302,-7.809l1.302,-1.301l0,-1.302l-1.302,-1.301l2.603,-1.302l5.206,0l1.302,1.302l0,-1.302c0,-1.301 -3.905,-3.904 -6.508,-3.904l-3.904,0l0,-1.302l0,-1.301l2.603,0l-1.302,-2.603c-1.301,-1.302 -3.904,-2.603 -3.904,-2.603l-1.302,0l1.302,2.603l1.301,1.301l-1.301,0l-2.603,0l0,2.603l-1.302,0l-2.603,0l0,2.603l-1.301,0c-1.302,-1.301 -3.905,0 -5.206,1.302l-2.603,2.603l0,-1.302l0,-1.301l-1.302,1.301l-2.603,0l0,-1.301l0,-1.302l-1.301,1.302l-2.604,1.301l-1.301,-1.301l-1.302,0l0,3.904c1.302,1.302 1.302,3.905 1.302,3.905l1.301,1.301l-3.904,1.302l-2.603,0l0,2.603c0,2.603 0,3.904 -1.302,3.904l0,1.302l-3.904,-2.603l-2.603,-1.302l-1.302,1.302c-1.301,1.301 -6.507,3.904 -7.809,3.904l-2.603,0l0,2.603l-2.603,0c-2.603,0 -3.904,2.604 -3.904,6.508c0,0 -1.302,2.603 -2.604,5.206c-1.301,1.302 -2.603,3.905 -2.603,5.206l0,1.302l-2.603,0c-2.603,1.301 -7.809,-2.603 -7.809,-5.206c0,-3.905 0,-3.905 -1.301,-6.508l-1.302,-2.603l-2.603,1.302l-1.301,0l1.301,-2.603l0,-1.302l-1.301,0l-2.603,1.302l-1.302,-3.905c-1.301,-2.603 -1.301,-5.206 -1.301,-6.508l0,-2.603l5.206,0l-1.302,-2.603l-2.603,-2.603l1.302,0l2.603,-1.301l0,-1.302l0,-1.301l-2.603,0l-1.302,0l2.603,-2.603c2.603,-1.302 2.603,-2.603 1.302,-5.206c0,-2.603 -1.302,-3.905 -1.302,-5.206l-1.301,0l-2.603,1.301l-1.302,1.302l-1.301,-1.302l0,-1.301l-2.603,1.301l-1.302,1.302l-1.301,5.206l0,5.206l-1.302,-1.302l-1.301,0l0,3.905c1.301,2.603 1.301,5.206 1.301,6.507l-1.301,2.603l-2.604,0l-1.301,0l0,5.206l-2.603,-2.603c0,-2.603 -1.302,-3.904 0,-5.206c0,-1.301 0,-2.603 1.301,-3.904l0,-1.302l-5.206,-1.301l-3.904,-1.302l0,2.603l1.301,2.603l3.905,0l0,1.302l-1.302,1.301l-1.301,1.302l1.301,1.301l2.603,1.302l-2.603,1.301l-1.301,1.302l-1.302,-1.302l0,-1.301l-1.301,1.301c-3.905,1.302 2.603,5.206 7.809,3.905l2.603,-1.302l0,2.603c0,1.302 -2.603,2.604 -6.508,5.207l-5.206,2.603l0,-1.302l0,-2.603l-2.603,1.302c-1.301,0 -5.206,-1.302 -7.809,-1.302c-2.603,-1.301 -3.904,-1.301 -5.206,0l-2.603,2.603l-1.301,-1.301l-1.302,0l0,-1.302c1.302,0 0,-1.301 0,-2.603l-1.302,-1.302l-1.301,0l-1.302,1.302l1.302,2.603l0,1.302l-1.302,0l-2.603,0l0,2.603l-1.301,1.301l-3.905,0l-2.603,-1.301l0,3.904l2.603,-1.301l2.603,0l0,1.301l-1.301,1.302l2.603,0l0,-1.302l0,-1.301l6.507,0l0,2.603l1.302,3.904l-1.302,0l-1.301,0l2.603,5.206l-2.603,-1.301c-1.302,-1.302 -2.603,-1.302 -2.603,-1.302l-1.302,0l0,5.206l-1.301,0c-2.603,-1.301 -6.508,2.603 -6.508,5.206c-1.301,2.603 -2.603,5.206 -3.904,5.206l-1.302,0l0,-3.904l0,-3.905l0,-1.301l-2.603,2.603l-2.603,2.603l-1.301,-1.302l-1.302,0l1.302,-1.301l0,-1.302l-5.206,0l-5.207,0l0,-1.301c0,-2.603 0,-3.905 -2.603,-5.206l-1.301,-2.603l1.301,0l1.302,-1.302l-1.302,-2.603l0,-2.603l-2.603,0l-1.301,0l0,-1.301l-1.302,-1.302l0,3.905l-1.301,0l-1.302,0l0,-1.302l0,-1.301l-1.301,0l-2.603,1.301l0,-3.904c-1.302,-2.603 0,-5.206 2.603,-5.206l1.301,0l0,-3.905l0,-3.905l2.603,0l0,-1.301l0,-2.603l2.603,0c2.603,-1.302 5.206,-1.302 6.508,-1.302l2.603,1.302l0,-1.302l0,-1.301l1.302,1.301l1.301,0l2.603,-2.603c1.302,-2.603 3.905,-3.904 5.206,-3.904l1.302,0l0,-1.302c0,-1.301 -1.302,-2.603 -2.603,-3.904l-1.302,-1.302l-1.301,1.302l-1.302,0l0,-2.603c0,-1.302 -1.301,-3.905 -2.603,-5.206l-2.603,-2.603l3.905,-2.604c2.603,-1.301 5.206,-2.603 5.206,-3.904l0,-1.302l-1.302,1.302c-2.603,1.301 -3.904,1.301 -6.507,0l-5.207,-1.302l0,-2.603l0,-15.618l0,-1.301l2.604,0l2.603,1.301l0,-2.603l0,-5.206c0,-1.301 0,-3.905 1.301,-5.206l1.302,-1.302l-1.302,0l-1.301,0l0,-2.603l0,-3.904l2.603,0l0,-1.302l0,-1.301l-3.905,0l-3.905,0l0,10.412c-1.301,0 -1.301,1.301 -1.301,2.603l0,1.302l-2.603,-1.302c-1.302,0 -3.905,1.302 -5.206,1.302l-1.302,1.301l0,-1.301l-1.301,2.603c0,1.301 0,2.603 1.301,3.904c0,1.302 1.302,2.603 1.302,3.905c0,1.301 0,3.904 1.301,5.206l1.302,2.603l-1.302,2.603c-1.301,0 -2.603,1.301 -2.603,2.603l-1.301,1.301l-1.302,-1.301c-1.301,0 -2.603,-1.302 -2.603,-2.603l0,-1.302l-2.603,2.603l-2.603,2.603l1.302,0l2.603,-1.301l0,1.301l-1.302,1.302l2.603,1.301l1.302,1.302l-1.302,1.301c0,1.302 1.302,2.603 1.302,3.905l2.603,3.905l-1.302,1.301c-1.301,0 -1.301,1.302 -1.301,2.603l0,2.603l-1.302,-1.301c-1.301,0 -2.603,-1.302 -3.904,-1.302l-1.302,0l0,1.302l1.302,1.301l-2.603,1.302l-2.603,0l-1.302,-1.302l-1.301,-1.301l-1.302,1.301c-1.301,1.302 -6.508,1.302 -7.809,0l-1.302,-1.301l0,2.603l1.302,2.603l-1.302,0l-1.301,0l2.603,2.603l3.905,1.301l-1.302,2.603c-1.302,1.302 -2.603,2.603 -3.905,2.603l-1.301,0l0,2.603c1.301,0 1.301,2.603 0,2.603l0,1.302l-2.603,-1.302l-1.302,-1.301l-1.301,1.301l-1.302,1.302l2.603,0l0,2.603c-1.301,1.301 -1.301,2.603 -2.603,2.603l-1.301,0l0,-1.302l0,-2.603l-2.603,-1.301l-1.302,0l0,-2.603l1.302,-1.302l-2.603,0l-1.302,0l0,-1.301l0,-1.302l-2.603,0l-2.603,0l0,-1.301l0,-1.302l-2.603,2.603c-1.301,1.302 -2.603,3.905 -3.904,6.508c0,1.301 -2.603,3.904 -3.905,3.904l-2.603,1.302l0,2.603l1.301,1.302l-1.301,1.301l-1.302,0l0,-1.301l0,-1.302l-3.904,-1.301l-3.905,-1.302l0,-1.302l0,-2.603l-1.301,0l-1.302,0l0,2.603l1.302,1.302l-1.302,0c0,0 -1.301,0 -2.603,-1.302l0,-1.301l-1.301,1.301l-1.302,0l0,-2.603l1.302,-1.301l5.206,-1.302l5.206,-1.301l-2.603,0l-2.603,-1.302l1.301,-1.301l2.603,-1.302l-1.301,-2.603l-1.302,-2.603l2.603,0c1.302,0 2.603,1.302 2.603,2.603l1.302,2.603l0,-2.603l0,-2.603l3.904,0l0,3.905l1.302,0c1.302,0 6.508,-3.905 6.508,-5.206l0,-1.302l-2.603,1.302l-2.603,0l0,-1.302l0,-3.904l-1.302,-1.302l-1.302,0c-1.301,0 -2.603,0 -3.904,-1.301l-1.302,-1.302l0,2.603l-1.301,0l-1.302,0l0,-3.904l1.302,-2.603l-2.603,-1.302l-1.302,0l0,2.603c-1.301,1.302 -1.301,3.905 -1.301,5.206l0,6.508l-1.302,0c-1.301,-1.302 -1.301,-3.905 -1.301,-6.508l0,-5.206l-2.603,1.302c-1.302,0 -3.905,0 -3.905,-1.302l-2.603,-1.301l0,1.301c-1.301,1.302 -2.603,1.302 -2.603,1.302l-1.301,0l1.301,-1.302l0,-2.603l-3.904,-1.301l-5.207,-1.302l0,5.206l2.604,-1.301l2.603,0l0,2.603l-1.302,0l-1.301,0l0,1.301c0,2.603 -3.905,3.905 -5.207,3.905l-1.301,0l0,2.603l1.301,2.603l-1.301,0l-2.603,0l0,2.603l-1.302,0l-1.301,0l0,-1.302l1.301,-2.603l-1.301,0c-1.302,0 -3.905,1.302 -6.508,3.905l-5.206,2.603l0,-2.603l0,-2.603l-1.301,1.301l-2.603,2.603l-1.302,0l-1.301,-1.301l0,3.904l-1.302,0c-2.603,1.302 -6.508,-1.301 -6.508,-3.904l0,-1.302l2.604,0l-1.302,-1.301c0,-1.302 -1.302,-2.603 -1.302,-2.603l0,-1.302l3.905,0l-1.301,-1.301l0,-1.302l1.301,-1.301l2.603,-1.302l-2.603,-1.301l-2.603,-2.603l3.905,-3.905l5.206,-5.206l-5.206,-2.603c-1.302,-2.603 -3.905,-5.206 -2.603,-6.508l0,-2.603l0,-1.301l3.904,0l-1.301,-2.603l0,-2.603l2.603,0l0,-1.302l-1.302,-1.301l3.905,-1.302l5.206,0l-1.302,-2.603l0,-1.301l1.302,0c0,0 1.301,1.301 2.603,1.301l1.301,2.603l-1.301,0l0,1.302l1.301,0c0,0 1.302,-1.302 2.603,-1.302l1.302,-2.603l-1.302,-1.301l-1.301,-1.302l1.301,-1.301l2.603,-2.604l-1.301,-2.603l0,-2.603l-2.603,1.302l-1.302,0l0,-1.302l0,-1.301l-1.301,1.301l-1.302,1.302l0,-1.302l-1.301,-1.301l1.301,-1.302l2.603,0l0,-1.301l0,-1.302l-1.301,0l-2.603,0l0,-1.301c0,0 1.301,-1.302 3.904,-2.603c1.302,-1.302 2.603,-2.603 2.603,-2.603l0,-1.302l2.603,0l0,2.603l1.302,3.905l1.301,0c1.302,0 2.603,-2.603 3.905,-3.905l1.301,-3.904l2.603,2.603l1.302,-1.302l2.603,0l5.206,5.206l0,-2.603l0,-1.301l1.302,1.301c1.301,0 2.603,1.302 3.904,0l1.302,0l0,-2.603l0,-1.301l1.301,1.301c2.603,2.603 6.508,5.206 9.111,3.905l2.603,0l-2.603,-3.905c-2.603,-3.904 -5.206,-6.507 -7.809,-6.507l-2.603,0l0,2.603l-1.302,0l-1.301,0l1.301,-1.302c0,-1.301 0,-3.904 -1.301,-5.206l-1.302,-1.301l0,6.507l-1.301,-2.603c0,-1.301 -1.302,-3.904 -2.603,-5.206l-2.603,-2.603l2.603,0l0,-2.603c0,-2.603 0,-3.905 -1.302,-3.905l-1.301,-1.301l0,7.809l-1.302,-5.206l-2.603,-5.206l-1.302,2.603c0,1.301 -1.301,5.206 -1.301,7.809l1.301,5.206l-2.603,0c-1.301,1.302 -3.904,1.302 -5.206,0l-2.603,0l0,-1.301l0,-1.302l-3.904,1.302l-2.603,2.603l1.301,1.301l0,1.302l-1.301,0l0,-1.302l-2.603,1.302l-1.302,1.301l0,-2.603l-1.301,-2.603l-2.603,1.302l-1.302,0l0,-1.302l1.302,-1.301l-1.302,0l-1.301,-1.302l0,2.603l-3.905,0l-3.905,1.302l0,-1.302l0,-1.301l-1.301,0l-1.302,1.301l-1.301,-1.301l0,-1.302l1.301,-2.603l1.302,-1.302l-1.302,0l-2.603,0l0,-2.603l-1.301,-1.301l0,6.508l-1.302,0l-2.603,-1.302l0,1.302c-1.301,1.301 0,2.603 0,3.904l1.302,1.302l0,1.301l-1.302,1.302l-1.301,-1.302l-1.302,0l0,3.905c0,2.603 0,5.206 -1.301,6.507l-1.302,2.603l-1.301,-3.904l0,-2.603l-2.603,1.301l-1.302,0l-1.301,-1.301l0,-2.603l-2.603,1.301l-1.302,1.302l-1.301,-1.302l0,-1.301l-1.302,1.301l-1.301,1.302l1.301,2.603l1.302,1.301l-1.302,1.302l-2.603,1.301l0,-1.301l-1.301,1.301c-1.302,0 -3.905,1.302 -5.207,1.302l-2.603,0l1.302,-1.302l0,-1.301l-1.302,-2.603l-1.301,-1.302l2.603,0l0,-1.301l-1.302,-1.302l-1.301,0l-1.302,0l1.302,-5.206l1.301,-3.904l2.603,0l1.302,1.301l0,-3.904l0,-3.905l-1.302,0l-1.301,0l1.301,-2.603l0,-2.603l-2.603,0l-3.904,0l1.301,1.301l0,2.603l-2.603,1.302l-2.603,2.603l0,1.302l1.302,2.603l-1.302,1.301l-2.603,1.302l-2.603,-2.603l-2.603,-2.603l2.603,0l-3.904,-1.302c-2.603,-1.302 -2.603,-2.603 -2.603,-7.809l-1.302,-6.508l2.603,1.302l1.302,0l-1.302,-3.905c0,-3.904 0,-5.206 2.603,-7.809c1.302,-1.301 3.905,-3.904 3.905,-6.507l2.603,-5.206l-1.302,0c-1.301,0 -2.603,1.301 -3.904,1.301c-1.302,1.302 -2.603,2.603 -3.905,2.603l-2.603,1.302l0,-1.302l0,-1.301l-1.301,1.301l-1.302,2.603l-2.603,-1.301l-1.301,-1.302l1.301,-1.301l0,-1.302l-1.301,0l-1.302,0l1.302,-1.301c0,-1.302 1.301,-1.302 2.603,-1.302l3.904,0l-2.603,-1.302l-2.603,-1.301l1.302,0l2.603,-1.302l0,-1.301l-1.302,-2.603l5.206,0l0,-2.603l0,-2.603l3.905,-1.302l2.603,0l-1.302,-2.603l-1.301,-1.301l5.206,0l0,3.904l2.603,-1.301l1.301,0l0,-2.603c0,-1.302 0,-2.603 1.302,-2.603c1.301,-1.302 1.301,-2.603 1.301,-3.905l0,-1.301l-1.301,1.301l-1.302,0l0,-5.206l0,-5.206l-2.603,0l-2.603,1.302l0,-2.604l-1.301,-1.301l2.603,-1.302l1.301,0l0,-2.603l0,-1.301l2.603,0l2.603,1.301l0,-2.603l0,-1.301l2.603,-1.302l6.508,0l1.302,-2.603l1.301,-2.603l-1.301,0l-2.604,0l-1.301,0l0,-2.603l1.301,-2.603l2.604,-1.301c1.301,0 2.603,1.301 3.904,1.301c1.302,2.603 6.508,1.302 7.809,-1.301l1.302,-2.603l-1.302,-1.302l-1.301,-2.603l1.301,-1.301c1.302,-1.302 2.603,-1.302 3.905,-1.302l2.603,0l0,-3.905c0,-1.301 0,-3.904 -1.302,-5.206l0,-1.301l-2.603,0l-2.603,1.301l-1.301,-2.603l0,-1.301l1.301,0l1.302,1.301l0,-5.206l1.301,-5.206l3.905,0l1.301,-1.301c0,-1.302 1.302,-2.603 1.302,-3.905l0,-2.603l3.904,-1.301l5.206,-1.302l0,-2.603l0,-2.603l-1.301,0l-1.302,0l1.302,-1.302l0,-1.301l-2.603,0l-2.603,0l1.301,-1.302l0,-1.301l1.302,1.301l1.301,0l0,-1.301c0,-1.302 0,-3.905 1.302,-3.905l0,-2.603l-1.302,0l-2.603,0l0,-1.301l0,-1.302l1.302,0l2.603,-1.301l-2.603,-1.302l-1.302,-1.301l1.302,-1.302l2.603,0l-1.302,-2.603l0,-1.301l3.905,3.904l0,-1.301l0,-1.302l2.603,0l1.302,1.302l0,-1.302l0,-1.301l3.904,0c2.603,0 5.206,-1.302 6.508,-2.603c1.301,-2.603 2.603,-3.905 7.809,-2.603l5.206,0l-1.302,-1.302l-1.301,-2.603l2.603,0l0,-1.301l0,-1.302l-1.302,0l-2.603,0l0,-1.302c0,-1.301 2.603,-3.904 5.206,-5.206c2.603,-1.301 5.206,-3.904 5.206,-3.904l0,-1.302l3.905,0l0,-1.301l0,-2.603l2.603,1.301l2.603,0l0,3.905l-1.301,2.603l3.904,0c3.905,1.301 9.111,-1.302 9.111,-2.603l0,-1.302l-2.603,0l-3.905,0l0,-1.301l0,-1.302l2.603,0l0,-1.301l-1.301,-2.603l2.603,0l0,2.603l1.301,-1.302c1.302,0 3.905,0 5.206,-1.301l3.905,0l0,5.206l1.301,-2.603c0,0 1.302,-1.302 2.603,-1.302c1.302,0 2.603,-1.301 2.603,-2.603c1.302,0 3.905,-1.301 5.207,-1.301l3.904,-1.302l-1.301,3.905l0,2.603l2.603,0l0,3.904l3.904,0l-1.301,3.905l0,5.206l2.603,1.301c1.301,0 3.904,0 3.904,-1.301l1.302,0l1.301,1.301c1.302,1.302 3.905,2.604 5.206,3.905l2.603,1.302l1.302,-2.603c1.301,0 1.301,-2.604 1.301,-3.905l-1.301,-1.302l1.301,1.302l1.302,0l3.904,-2.603l3.905,-2.603l1.302,2.603l0,2.603l2.603,-1.302l1.301,0l-2.603,-2.603c-1.301,-1.301 -3.904,-2.603 -5.206,-2.603l-5.206,0l-2.603,0l1.301,-1.301c1.302,0 1.302,-1.302 1.302,-2.603l6.508,0l0,-2.603l0,-1.302l3.904,0l0,-1.301l0,-1.302l-1.301,0l-1.302,1.302l1.302,-2.603l0,-3.905l-3.905,0l-3.905,-1.301l1.302,-1.302l1.301,0l0,-1.301l-1.301,-1.302l3.905,-2.603l3.904,-3.905l1.302,1.302l1.301,0l0,-1.302l-1.301,-1.301l2.603,-2.603l3.904,-2.603l0,3.904l5.206,0l-2.603,-1.301l-1.301,-1.302l1.301,-1.301l1.302,0l-1.302,-2.603l0,-1.302l1.302,0c0,0 1.301,1.302 2.603,2.603l2.603,1.302l2.603,-1.302l2.603,-1.301l-1.302,-2.603l-1.301,-2.603l1.301,-2.603l2.603,-1.302l0,6.508l1.302,-2.603l1.301,-2.603l1.302,0l1.301,1.301l0,-1.301l1.302,-1.302l1.302,1.302l2.603,0l1.301,-2.603c1.302,-2.603 2.603,-3.905 3.905,-3.905l2.603,0l0,-3.904c-1.302,-2.603 -1.302,-5.206 -2.603,-5.206l-1.302,-1.302l2.603,-2.603l2.603,-2.603l2.603,2.603l0,-1.302l1.302,-2.603l-1.302,0l-1.301,0l1.301,-1.301l0,-2.603l-1.301,0l-1.302,0l1.302,-1.302l2.603,-2.603l0,1.302l1.301,0l0,-1.302l0,-2.603l-3.904,1.302l-2.603,1.301l1.301,-2.603l1.302,-2.603l-2.603,-1.301c-1.302,-1.302 -3.905,-2.603 -5.206,-2.603l-2.603,0l1.301,-1.302l0,-2.603l-1.301,0l-1.302,0l1.302,-1.301l0,-1.302l-1.302,-1.301c0,0 -1.301,-2.603 -1.301,-3.905l-1.302,-2.603l2.603,0l-1.301,-2.603l-1.302,-2.603l5.206,0l0,5.206l1.302,-5.206l1.301,-3.905l2.603,0l-1.301,1.302l0,2.603l3.904,0c2.603,-1.302 3.905,-1.302 5.206,-2.603c0,0 1.302,-1.302 6.508,0l1.301,0l-1.301,2.603l0,3.904l2.603,-2.603c1.301,-1.301 3.904,-2.603 3.904,-2.603l2.603,1.302l0,-1.302l0,-1.301l3.905,1.301l3.905,0l0,-1.301c0,-1.302 -1.302,-2.603 -1.302,-3.905l-2.603,-1.301l0,1.301l-1.301,0l0,-1.301l0,-2.603l1.301,1.301l1.302,0l1.301,-1.301l0,-1.302l-2.603,-1.301l-1.301,-2.603l2.603,-1.302c1.301,-1.301 3.904,-2.603 5.206,-1.301l1.301,0l0,-1.302c0,0 0,-2.603 -1.301,-3.904l-1.302,-3.905l23.427,0l0,2.603l2.603,0l1.302,1.302l1.302,-1.302l1.301,-1.301l1.302,2.603c1.301,1.301 2.603,2.603 2.603,3.904l1.301,1.302l2.603,1.301l-5.206,0l-5.206,-1.301l0,6.507l2.603,0c1.302,-1.301 2.603,-1.301 5.206,-2.603l2.603,0l-2.603,1.302l-1.301,2.603l3.904,0c3.905,-1.302 5.206,-1.302 6.508,0c1.301,1.301 2.603,2.603 3.904,1.301l2.603,0l-1.301,-1.301l0,-1.302l1.301,0l1.302,-1.301l0,1.301c1.301,1.302 9.11,1.302 9.11,0l1.302,-1.301l2.603,0c1.302,1.301 2.603,1.301 3.905,2.603c0,0 1.301,1.301 2.603,1.301l1.301,0l0,-1.301l0,-1.302l1.302,0l1.301,1.302l2.603,-2.603c1.302,-1.302 2.603,-2.603 2.603,-3.905l0,-1.301l3.905,0l2.603,-1.302l1.301,1.302l0,1.301l-1.301,0l-1.302,1.302l2.603,2.603l-1.301,0l-1.302,1.301l1.302,1.302l0,2.603l2.603,0c2.603,0 3.904,-1.302 5.206,-2.603l1.301,-1.302l2.603,0l1.302,1.302l1.302,-1.302c1.301,-1.301 2.603,-2.603 3.904,-2.603l3.905,0l-1.302,2.603l0,3.905l1.302,-1.302c0,-1.301 1.301,-2.603 1.301,-3.904c1.302,-1.302 2.603,-3.905 3.905,-3.905l1.301,0l0,1.302l-1.301,2.603l10.412,0l-1.302,2.603l-1.301,1.301l1.301,0l2.603,-1.301c1.302,-1.302 2.603,-2.603 3.905,-2.603l1.301,0l0,-2.603c0,-1.302 3.905,-3.905 6.508,-5.206c3.905,-1.302 6.508,-3.905 6.508,-5.206l0,-1.302l1.301,0c1.302,0 5.206,5.206 5.206,6.508l0,1.301l-2.603,0l-1.301,0l3.904,3.905l-1.301,1.301l0,1.302l2.603,0l1.301,-1.302l0,-2.603l1.302,0c1.301,0 2.603,1.302 3.904,1.302l1.302,2.603l2.603,-1.302l1.301,0l0,-2.603l0,-1.301l2.603,0l0,3.904l2.603,0l3.905,1.302l0,-2.603l1.302,-2.603l-1.302,0l-1.301,0l0,-1.302l0,-1.301l1.301,0l2.603,1.301l1.302,-2.603l1.301,-1.301l1.302,1.301l2.603,1.302l-2.603,5.206l-1.302,3.904l1.302,1.302c1.301,1.301 3.904,1.301 5.206,1.301c3.904,-1.301 9.11,3.905 9.11,6.508l0,2.603l1.302,1.301l2.603,0l-1.302,1.302l0,1.301l2.603,0c2.603,1.302 7.81,0 7.81,-2.603l-2.604,1.302l-2.603,0l0,-1.302l0,-1.301l-2.603,0l-1.301,0l3.904,-3.905l5.207,-5.206l1.301,1.302l2.603,1.301l0,2.603l-1.301,2.603l1.301,1.302l1.302,0l0,2.603l-1.302,2.603l2.603,0c2.603,-1.302 3.905,-1.302 5.206,0l2.603,0l-1.301,3.905l0,2.603l2.603,-1.302l3.904,-2.603l0,1.302c1.302,0 1.302,1.301 1.302,3.904l0,3.905l1.301,-3.905l1.302,-3.904l5.206,0l0,-3.905l1.301,-3.905l1.302,0l2.603,1.302l0,-1.302l0,-1.301l5.206,0l-1.301,2.603c-1.302,1.301 -1.302,2.603 -1.302,3.904l1.302,2.604l1.301,-1.302c1.302,0 3.905,1.302 5.206,2.603c1.302,1.302 2.603,2.603 3.905,2.603c15.618,6.508 15.618,6.508 18.221,5.206c2.603,-1.301 5.206,-2.603 6.508,-1.301l2.603,0l1.301,-1.302l0,-2.603l3.905,0l0,-1.301l-1.302,-1.302l-2.603,1.302l-1.301,0l1.301,-1.302l-1.301,-2.603l-1.302,-1.302l1.302,0l-2.603,-2.603l-3.905,-3.904l1.302,0l2.603,-1.302l-2.603,-1.301l-2.604,-2.603l3.905,-1.302c1.302,0 6.508,-3.904 9.111,-6.507l6.507,-6.508l0,5.206l1.302,0c1.301,1.302 2.603,0 3.904,0l2.603,-1.301l0,5.206l-2.603,-1.302l-2.603,0l1.302,1.302c0,1.301 2.603,2.603 5.206,2.603l3.904,0l1.302,1.301l0,1.302l3.905,-1.302l6.507,0l1.302,1.302l-1.302,1.301l-1.301,1.302l2.603,0l-2.603,1.301l-1.302,1.302l2.603,1.301l3.905,1.302l2.603,-2.603c0,-1.302 1.301,-2.603 0,-3.905l0,-1.301l2.603,0l2.603,1.301l0,-5.206l1.301,-3.904l2.603,0l-1.301,2.603l0,1.301l1.301,0l1.302,-1.301l0,9.11l-1.302,0c0,0 -1.301,0 -2.603,-1.301l-1.301,-1.302l-1.302,1.302l-1.301,1.301l2.603,2.603l2.603,1.302l-1.302,1.301c0,1.302 0,3.905 -1.301,5.207l0,2.603l2.603,0l0,-1.302l0,-1.301l1.301,0c1.302,0 2.603,1.301 3.905,1.301c1.301,1.302 3.904,1.302 7.809,1.302c3.905,0 6.508,0 9.111,3.904c1.301,1.302 3.904,2.603 5.206,2.603l1.301,0l0,3.905l1.302,0l1.301,-1.302l0,2.603l1.302,0l1.301,-1.301l0,3.904c0,2.603 0,3.905 -1.301,5.206c-1.302,0 -1.302,1.302 -1.302,1.302l0,2.603l3.905,0l1.301,2.603l0,2.603l3.905,1.301l5.206,0l2.603,1.302l1.302,-2.603l0,-5.206l0,-2.603l2.603,0l2.603,1.301l1.301,-1.301l0,-1.302l2.603,2.603c2.603,2.603 3.905,3.905 6.508,3.905l2.603,0l0,9.111l-3.905,0l-2.603,-1.302l1.302,1.302l0,1.301l-3.905,3.905l-3.904,3.904l0,-1.301c-1.302,-1.302 -1.302,-2.603 -1.302,-3.905l-1.301,-1.301l0,2.603c0,2.603 0,3.904 1.301,5.206c1.302,0 1.302,1.301 1.302,2.603l0,2.603l3.904,0l0,2.603l-1.301,0c0,0 -1.302,0 -2.603,-1.302l-2.603,-1.301l0,3.904c-1.302,3.905 2.603,7.809 5.206,6.508l1.301,0l0,1.301l-1.301,2.603l5.206,0l-2.603,2.604l-2.603,1.301l6.507,0l-1.301,-3.905l0,-2.603l1.301,1.302c1.302,1.301 2.603,2.603 3.905,2.603l1.301,0l-1.301,-1.302l0,-2.603l10.412,0l0,2.603c-1.302,1.302 -1.302,2.604 0,2.604l0,1.301l3.904,-2.603l2.604,-3.905l1.301,0l1.302,1.302l0,-1.302l0,-2.603l1.301,0c1.302,0 2.603,0 3.905,1.302l0,1.301l-1.302,0l-1.301,0l1.301,2.603l0,1.302l3.905,0l0,1.302l-1.302,1.301l1.302,0l1.301,1.302l0,-2.603l0,-2.604l2.603,0l0,3.905l2.603,0l0,-1.301l-1.301,-1.302l2.603,0l1.301,-3.905l0,-3.904l0,-1.302l2.603,0c3.905,0 5.206,2.603 5.206,6.508l0,2.603l3.905,0c1.301,0 3.905,-1.302 5.206,-2.603l1.302,-1.302l0,2.603l3.904,0l0,2.604l-1.301,0l-1.302,1.301l2.603,0l-1.301,3.905l0,3.904l5.206,1.302c2.603,1.301 5.206,1.301 6.507,1.301l1.302,0l0,5.206l9.11,0l-1.301,1.302l-1.302,2.603l3.905,2.603c1.301,1.301 3.904,1.301 5.206,1.301l2.603,0l1.302,5.206l0,5.207l3.904,0l0,-1.302c0,0 -1.301,-1.302 -1.301,-2.603l-1.302,0l2.603,-1.302c3.905,-1.301 6.508,0 9.111,3.905l2.603,2.603l0,1.302l-1.302,0l-1.301,-1.302l-2.603,-1.301l0,2.603l-2.603,1.301l-2.603,0l1.301,1.302c1.302,1.301 2.603,2.603 2.603,5.206l1.302,2.603l-1.302,0l-1.301,1.301l1.301,2.603l0,2.603l-1.301,0l-2.603,-1.301l-1.302,2.603c-1.301,1.301 -1.301,3.904 0,3.904l0,1.302l-2.603,0c-1.301,0 -2.603,0 -2.603,-1.302c-1.301,-1.301 -2.603,-1.301 -3.905,-1.301l-1.301,0l1.301,2.603c2.604,0 3.905,1.301 5.207,1.301c1.301,0 3.904,1.302 5.206,2.603l2.603,1.302l1.301,0l0,-1.302l0,-1.301l6.508,0l0,2.603l1.301,-1.302c2.603,0 6.508,2.603 5.206,5.207l0,2.603l2.603,0c3.905,-2.603 9.111,-2.603 11.714,-1.302l2.603,2.603l-2.603,0l-1.301,0l0,3.905c0,2.603 3.904,7.809 6.507,7.809l-1.301,-2.603l-1.302,-2.603l5.206,1.301c2.603,0 5.206,0 5.206,1.302l1.302,0l-2.603,1.301l-1.302,0l1.302,1.302l0,1.301l-1.302,0l-1.301,0l2.603,3.905c2.603,1.301 3.904,3.904 3.904,3.904l0,1.302l-2.603,0l-1.301,1.301l0,1.302l1.301,2.603l-5.206,-1.302c-2.603,0 -5.206,0 -5.206,-1.301l-1.301,-1.302l0,2.603l-1.302,0l-1.301,-1.301l0,2.603l-1.302,1.301l-1.301,0l-1.302,-1.301l0,1.301c0,0 1.302,2.604 3.905,3.905c3.904,3.905 3.904,5.206 2.603,7.809l0,2.603l-2.603,0l-1.302,0l5.206,2.603l0,7.809l-1.301,1.302l-5.206,0l-2.604,1.301l0,2.603l-1.301,0l-1.302,-1.301l0,1.301c0,1.302 -1.301,2.603 -1.301,5.206l1.301,2.604l-1.301,-1.302l-1.302,0l0,3.905l3.905,0c2.603,-1.302 5.206,-2.603 5.206,-2.603l1.302,-1.302l0,2.603c0,1.302 0,2.603 -1.302,3.905l-1.301,0l1.301,2.603l1.302,1.301l-1.302,0l-2.603,0l2.603,3.905c2.603,1.301 5.206,2.603 5.206,2.603l2.603,0l0,2.603l-1.301,2.603l2.603,0l0,1.301c0,1.302 -6.508,3.905 -10.412,3.905l-3.905,1.301l0,-2.603l0,-1.301l-2.603,1.301l-1.302,0l0,-1.301l1.302,-2.603l-1.302,0l-1.301,0l0,2.603l-3.905,0c-3.904,1.301 -5.206,2.603 -3.904,5.206l0,1.301l2.603,-1.301c2.603,-2.603 3.904,-2.603 7.809,-1.302l2.603,1.302l0,3.904l2.603,-1.301l1.302,-1.302l0,2.603c0,2.604 1.301,3.905 2.603,5.207c1.301,0 1.301,2.603 2.603,5.206l0,3.904l-3.905,0l-3.905,-1.301l0,1.301c-1.301,1.302 -6.507,2.603 -9.11,1.302l-2.603,-1.302l-1.302,1.302l-1.301,2.603l0,-3.905l0,-3.904l3.904,0l-1.301,-1.302l0,-2.603l-1.302,1.302c-1.301,1.301 -2.603,2.603 -2.603,3.904l-1.301,2.603l-2.603,0c-2.603,0 -5.206,0 -6.508,1.302l-1.301,1.301l0,2.603l1.301,1.302l-1.301,0l-1.302,0l-1.301,2.603l0,2.603l2.603,0l1.301,1.301l0,-1.301l0,-1.302l1.302,0l0,1.302l2.603,-1.302c1.301,-1.301 3.904,-1.301 5.206,0l2.603,0l0,3.905l2.603,0l0,5.206l-1.302,0l-1.301,0l5.206,2.603l-1.302,1.301l-2.603,2.604l1.302,0l0,1.301l-2.603,2.603l-1.302,2.603l-1.301,-1.301c-1.302,-1.302 -1.302,-2.603 -1.302,-5.206l0,-2.604l-2.603,0c-1.301,-1.301 -2.603,-1.301 -3.904,0l-1.302,0l1.302,2.604l1.301,1.301l-1.301,0c-1.302,1.302 -9.111,0 -10.413,-1.301l-1.301,0l-2.603,2.603l-1.302,2.603l0,-5.206l0,-3.905l-1.301,1.301l-2.603,0l0,-2.603c0,-1.301 0,-2.603 1.301,-2.603c1.302,-1.301 1.302,-2.603 1.302,-5.206l0,-2.603l2.603,0l0,-1.301c0,-1.302 -1.302,-2.603 -1.302,-3.905l-2.603,-1.301l0,1.301c0,1.302 -2.603,1.302 -3.904,2.603c-3.905,0 -6.508,1.302 -6.508,2.603l0,1.302l1.302,0l2.603,-1.302l-1.302,5.206c0,5.206 0,6.508 3.905,7.809c1.301,1.302 2.603,3.905 2.603,5.207l0,1.301l-1.302,0l-1.301,0l0,2.603c0,1.302 2.603,3.905 3.904,5.206l2.603,2.603l-2.603,1.302c-1.301,1.301 -2.603,2.603 -3.904,3.904l-1.302,1.302l0,1.301l1.302,1.302l-2.603,0c-1.302,0 -2.603,0 -2.603,1.301l-1.302,1.302l2.603,0l2.603,1.301l0,5.206l-1.301,0c-1.302,0 -2.603,-1.301 -5.206,-2.603c-1.302,-2.603 -2.603,-3.904 -2.603,-5.206l0,-1.301l-1.302,0l-2.603,0l0,-1.302l-1.301,-1.301l0,5.206l-2.603,0l-2.603,-1.302l0,2.603c-1.302,2.603 -1.302,5.206 0,6.508l0,5.206l7.809,0l0,1.302c0,1.301 1.301,2.603 2.603,3.904l2.603,1.302l-2.603,0l-1.302,0l0,2.603l3.905,0l0,2.603l-1.302,1.301l6.508,0l0,1.302c0,0 -1.302,1.301 -1.302,2.603l-1.301,1.301l2.603,0l2.603,-1.301l1.301,1.301l0,1.302l-2.603,2.603l-1.301,1.301l1.301,2.603c1.302,0 2.603,1.302 3.905,1.302c1.301,0 2.603,1.301 3.904,2.603l2.603,1.302l1.302,-2.604c1.301,-1.301 2.603,-2.603 2.603,-2.603c1.302,0 5.206,6.508 3.905,7.81c0,1.301 -1.302,2.603 -1.302,3.904c0,1.302 -1.301,2.603 -1.301,3.905l-2.604,1.301l0,-2.603l0,-1.301l-1.301,1.301l-1.302,2.603l0,-2.603l0,-1.301l-2.603,0l-3.904,0l-2.603,0l0,-1.302l0,-2.603l-2.603,1.302l-2.603,0l1.301,1.301l1.302,0l0,2.603l-1.302,0l-2.603,-1.301l0,1.301l-1.301,1.302l-1.302,0c0,-1.302 -1.301,-2.603 -1.301,-3.905l0,-1.301l2.603,0l0,-2.603l1.301,-3.905l-1.301,0c-1.302,0 -3.905,0 -5.206,-1.302c-2.603,0 -3.905,1.302 -5.206,1.302l0,1.302l2.603,0l0,5.206l-1.302,0l-1.301,1.301l3.904,0l0,5.206l-2.603,0c-2.603,-1.301 -3.904,0 -5.206,0c-1.302,2.603 -2.603,6.508 -1.302,9.111l1.302,1.301l-1.302,0l-1.301,0l1.301,3.905l0,3.904l-1.301,0l-1.302,0l0,3.905l-1.301,0l-1.302,0l-1.301,2.603l0,2.603l-1.302,-1.301c-1.301,0 -2.603,0 -3.904,1.301l-2.603,1.302l-1.302,-1.302l-1.301,-1.301l-1.302,2.603l-2.603,2.603l0,-3.905l0,-2.603l2.603,0l0,-3.905c-1.301,-3.904 1.302,-6.507 6.508,-9.11l3.904,-2.603l-2.603,-6.508c-1.301,-2.603 -1.301,-6.507 -1.301,-7.809l0,-1.301l-1.302,0l-2.603,0l0,1.301l1.302,1.302l-2.603,2.603c-2.603,2.603 -3.905,3.904 -3.905,3.904l-1.301,0l1.301,-1.301l0,-3.905l-1.301,-2.603l-3.905,1.302l-2.603,1.301l1.302,2.603c0,2.603 1.301,3.905 1.301,3.905c1.302,1.301 1.302,2.603 1.302,5.206l0,2.603l-1.302,0c0,0 -1.301,-1.302 -2.603,-2.603l-1.301,-2.603l-2.603,3.904c-1.302,2.603 -2.604,5.206 -2.604,5.206l-1.301,0l0,-2.603l0,-1.301l-3.905,0l-3.904,1.301l0,-3.904l1.301,-2.603l-1.301,1.301l-2.603,0l0,-1.301l0,-1.302l2.603,0l0,-1.301l0,-2.603l2.603,0l1.301,-1.302l0,3.905l2.603,-1.302c0,-1.301 1.302,-2.603 1.302,-5.206l-1.302,-2.603l5.207,2.603l0,-2.603c-1.302,-1.301 -2.604,-3.904 -2.604,-6.507l-1.301,-3.905l-2.603,0l-1.302,0l0,3.905l-2.603,0c-1.301,0 -2.603,-1.302 -3.904,-2.604l-1.302,-1.301l0,2.603c1.302,1.302 1.302,3.905 1.302,5.206l1.301,1.302l-2.603,0c0,1.301 -2.603,1.301 -2.603,0l-2.603,0l0,-1.302c0,-1.301 1.302,-1.301 1.302,-2.603l2.603,-1.301l-1.302,-1.302l-1.301,-1.302l0,2.604l-2.603,-1.302l-2.603,-1.302l0,1.302c-1.302,1.302 -1.302,2.603 0,3.905l1.301,2.603l-3.904,0c-2.603,1.301 -3.905,2.603 -5.206,3.904l-1.302,1.302l2.603,0l2.603,-1.302l-1.301,1.302l-1.302,2.603l1.302,1.301c1.301,1.302 2.603,3.905 2.603,5.206l-1.302,3.905l-1.301,-1.302l-2.603,0l-1.302,2.603l0,2.603l-7.809,0l-7.809,-1.301l0,6.507l1.301,-2.603l1.302,-1.301l0,1.301l1.301,2.603l1.302,-2.603c1.301,0 3.904,-1.301 5.206,-1.301l3.905,0l-1.302,2.603l0,2.603l2.603,0l0,6.508l-1.301,-2.603l-1.302,-1.302l0,6.508c0,0 0,1.301 -1.302,2.603l-1.301,0l-2.603,-1.302l-1.302,-1.301l0,1.301l-2.603,-1.301l-2.603,-1.302l0,-2.603c0,-1.301 -1.301,-3.904 -2.603,-5.206l-2.603,-3.905l-2.603,1.302c-1.301,1.301 -2.603,2.603 -3.904,2.603l-2.603,0l3.904,-3.905l2.603,-3.904l1.302,1.301l1.301,0l0,-1.301l0,-1.302l-1.301,0l-2.603,0l-1.302,-3.904c0,-1.302 -1.301,-3.905 -1.301,-5.206c-2.603,-2.603 -7.809,-2.603 -11.714,-1.302c-1.302,1.302 -3.905,1.302 -5.206,2.603l-1.302,0l-1.301,-1.301l-1.302,-1.302l-1.301,1.302c0,0 -2.603,1.301 -3.905,2.603l-3.904,1.301l-1.302,-2.603c0,-1.301 -1.301,-3.904 0,-3.904l0,-1.302l-2.603,0c-1.301,1.302 -2.603,1.302 -3.904,1.302l-1.302,1.301l-1.301,-3.904c-1.302,-1.302 -2.603,-2.603 -2.603,-2.603l-1.302,0l1.302,1.301l0,2.603l-1.302,0l-2.603,1.302l0,-1.302l0,-1.301l-1.302,1.301l-1.301,0l0,-1.301l0,-1.302l-1.302,0l-2.603,0l0,3.905l-1.301,2.603l-1.302,-1.302l-1.301,0l0,1.302c0,0 0,1.301 1.301,2.603l1.302,2.603l-2.603,1.301l-1.302,1.302l-2.603,-1.302l-2.603,-1.301l1.302,3.904l0,2.603l-2.603,0l-3.905,-1.301l0,1.301l-1.301,1.302l-2.603,-2.603c-2.603,-1.302 -2.603,-2.603 -2.603,-5.206l1.301,-2.603l-2.603,0l-5.206,0l-1.302,-1.302l0,-1.301c0,-1.302 1.302,-2.603 1.302,-2.603l1.302,0l-1.302,-1.302l0,-1.301l5.206,0l0,-1.302l0,-1.301l-1.301,0l-2.603,1.301l0,-3.904l-1.302,-2.603l-1.302,0l-1.301,0l0,-2.603l0,-2.604l-1.302,1.302l-2.603,0l0,-1.302l-1.301,-2.603l-3.905,0l-3.904,0l1.301,-2.603l0,-2.603l-2.603,1.302l-1.301,2.603l-1.302,-2.603l0,-1.302l-2.603,1.302l-1.301,0l-1.302,-1.302l0,-2.603l-2.603,2.603l-1.301,2.603l-1.302,-2.603l0,-2.603l-3.904,0l-3.905,0l1.301,2.603l0,14.317l1.302,-3.904l1.302,-3.905l1.301,0l1.302,1.301l0,1.302l3.904,3.905l0,1.301l-1.301,2.603l2.603,1.302c0,1.301 1.301,2.603 1.301,2.603l0,1.301l-2.603,0l-1.301,1.302l-1.302,-1.302l-1.301,-1.301l0,2.603l1.301,3.904l-2.603,1.302c-1.301,1.301 -3.905,1.301 -3.905,0l-1.301,0l0,2.603l-2.603,0c-1.302,0 -3.905,-1.302 -5.206,-1.302l-1.302,-1.301l-1.301,2.603l-1.302,1.301l-2.603,-1.301c-1.301,0 -2.603,-1.302 -2.603,-1.302l-1.301,0l0,2.603c0,0 1.301,2.603 2.603,3.905l2.603,2.603l-1.302,1.301c-1.301,1.302 -3.904,1.302 -5.206,1.302c-1.301,1.301 -3.904,1.301 -5.206,1.301c-3.904,2.604 -6.507,1.302 -7.809,-3.904l-1.302,-3.905l-2.603,1.302l-1.301,2.603l0,-1.302l0,-2.603l-6.508,1.302c-3.904,0 -7.809,1.301 -9.11,3.904c-1.302,1.302 -2.603,3.905 -2.603,3.905c0,0 -1.302,2.603 -3.905,3.905c-3.904,5.206 -9.111,15.618 -11.714,22.125l-1.301,5.206l-2.603,0c0,0 -2.603,1.302 -3.905,3.905c-1.301,1.302 -3.904,6.508 -6.507,10.412c-16.92,24.729 -19.523,44.252 -13.015,83.297c1.301,9.111 3.904,11.714 9.11,11.714c1.302,-1.302 3.905,0 5.206,0l1.302,1.302l1.301,-1.302l1.302,-1.302l1.301,1.302l1.302,2.603l0,-2.603l0,-1.302l2.603,2.604l1.301,-1.302l2.603,0l-1.301,-2.603l0,-2.603l1.301,1.301l2.603,1.302l0,-1.302l1.302,0l2.603,5.207l2.603,-1.302l2.603,0l0,-2.603l0,-2.603l2.603,0l0,9.111l1.302,-3.905l0,-2.603l2.603,0l0,2.603l1.301,3.905l0,-3.905c0,-1.302 1.302,-2.603 2.603,-3.905l1.302,-1.301l0,3.904l3.904,0l0,-2.603l0,-1.301l2.603,2.603l2.603,0l2.603,-1.302l0,2.603l5.207,0l0,-1.301l0,-1.302l1.301,1.302c1.302,2.603 3.905,2.603 6.508,1.301l2.603,-1.301l0,1.301l1.301,1.302l2.603,-1.302l3.905,0l0,3.905l1.301,0c0,0 1.302,-1.301 2.603,-2.603l1.302,-1.302l1.301,1.302l1.302,2.603l0,-2.603l0,-2.603l2.603,5.206l2.603,0l0,-1.301l-1.302,-1.302l2.603,0l1.302,-1.302l2.603,2.604l0,-1.302l1.302,-1.302l1.301,2.604l0,2.603l2.603,0c0,0 2.603,0 3.905,-1.302l2.603,-1.301l1.301,2.603l2.603,2.603l1.302,0l1.301,-1.302l2.603,1.302c1.302,1.301 6.508,3.904 11.714,3.904c5.206,1.302 10.412,2.603 11.714,2.603c1.301,1.302 5.206,2.603 9.11,3.905c2.603,0 6.508,1.301 9.111,2.603c2.603,1.301 6.508,2.603 7.809,2.603c5.206,0 19.523,7.809 19.523,11.713l0,1.302l-206.942,0l-205.64,0l2.604,-1.302l0,0Zm147.071,-585.683l0,-1.301l2.603,0l0,1.301c-1.301,1.302 -1.301,1.302 -2.603,1.302l0,-1.302Z" style="fill:#fff;fill-rule:nonzero;"/><path d="M374.536,439.913l-1.302,-1.301l1.302,-2.603l2.603,-1.302l2.603,2.603l-2.603,1.302l-2.603,2.603l0,-1.302Zm-166.595,-3.904l-1.301,-2.603l2.603,0l0,3.904l-1.302,0l0,-1.301Zm3.905,-2.603c-1.302,-1.302 0,-10.413 1.302,-11.714l1.301,0l-1.301,-2.603l0,-1.302l3.904,0l0,5.206l2.603,0l1.302,1.302l0,1.302c0,1.301 -7.809,9.11 -7.809,9.11c-1.302,0 -1.302,0 -1.302,-1.301Zm13.015,-1.302c0,0 0,-2.603 1.302,-5.206l1.301,-3.905l2.603,0l0,5.207l-1.301,0l-1.302,0l1.302,1.301l1.301,2.603l-2.603,0l-2.603,1.302l0,-1.302Zm163.991,-2.603c0,-3.904 1.302,-5.206 2.604,-6.508c1.301,-1.301 2.603,-3.904 2.603,-5.206c1.301,-1.301 1.301,-2.603 2.603,-2.603l1.301,0l-1.301,5.206c0,6.508 -2.603,10.413 -5.206,11.714l-2.604,1.302l0,-3.905Zm-5.206,-7.809c-1.301,0 0,-1.302 0,-2.603l1.302,-1.302l1.301,0c0,1.302 1.302,2.603 1.302,3.905l0,1.301l-1.302,0c-1.301,0 -2.603,0 -2.603,-1.301Zm311.063,-2.603l0,-2.603l9.111,0l-1.302,2.603l0,1.301l-3.904,0l-3.905,0l0,-1.301Zm-438.611,-1.302c0,0 0,-1.301 1.301,-1.301c1.302,-1.302 1.302,-2.603 1.302,-3.905l0,-2.603l2.603,2.603c3.904,3.905 2.603,5.206 -1.302,6.508l-3.904,0l0,-1.302Zm-113.232,-3.904c0,-2.603 1.301,-3.905 3.904,-2.603l1.302,1.301l0,1.302c-1.302,0 -2.603,1.301 -3.905,1.301l-1.301,0l0,-1.301Zm101.518,0c0,-1.302 1.301,-2.603 2.603,-2.603l2.603,0l0,1.301c0,1.302 -1.301,2.603 -2.603,2.603l-2.603,0l0,-1.301Zm74.186,0c0,-1.302 0,-2.603 1.302,-2.603c1.302,-1.302 1.302,-2.603 1.302,-5.206l0,-2.603l1.301,0c0,0 2.603,-1.302 3.905,-2.603l2.603,-2.603l1.301,0l2.603,1.301l0,6.508l-2.603,-1.302c-1.301,-1.301 -2.603,-1.301 -3.904,-1.301c-1.302,0 -3.905,6.507 -3.905,9.11l0,1.302l-1.301,0l-2.604,1.301l0,-1.301Zm71.584,0c0,-1.302 0,-2.603 1.302,-3.905l0,-2.603l2.603,0l0,7.809l-1.302,0c0,0 -1.301,0 -2.603,-1.301Zm-222.56,-1.302l0,-1.301l1.302,-1.302l1.301,-1.301l0,5.206c-1.301,0 -1.301,0 -2.603,-1.302Zm-5.206,-1.301l0,-3.905l0,-2.603l-1.301,0l-2.603,-1.301l0,-2.603l0,-1.302l3.904,3.905c2.603,1.301 3.905,3.904 3.905,6.507l0,2.603l-1.302,0l-2.603,0l0,-1.301Zm98.916,-5.206c-1.302,0 -1.302,-1.302 -1.302,-1.302l0,-1.301l7.809,0l0,3.904l-2.603,0c-2.603,0 -3.904,0 -3.904,-1.301Zm85.9,0l-2.603,-2.603l0,-1.302l1.301,-2.603l1.302,0c0,0 1.301,1.302 2.603,2.603l2.603,3.905l-1.302,0c-1.301,1.301 -1.301,1.301 -3.904,0Zm72.885,-3.905l0,-2.603l2.603,0c3.905,2.603 9.111,-5.206 5.206,-7.809l-1.301,0l-2.604,1.302l-1.301,1.301l-1.302,-1.301l-1.301,-1.302l3.904,-3.905c3.905,-3.904 5.207,-5.206 9.111,-13.015c1.302,-2.603 2.603,-5.206 3.905,-5.206l0,5.206c-1.302,3.905 -2.603,7.809 -2.603,9.111l-1.302,2.603l-2.603,0l-1.301,-1.302l-1.302,1.302l0,1.301l2.603,1.302c2.603,0 3.905,2.603 3.905,3.905c1.301,2.603 -2.603,6.507 -5.206,7.809l-2.603,1.301l0,2.603l-2.604,0l-3.904,0l0,-2.603Zm48.156,0l-1.301,0l0,-2.603l0,-1.301l3.904,0l0,5.206c0,0 -1.301,0 -2.603,-1.302Zm-380.043,-1.301c-2.603,-1.302 -1.302,-3.905 1.301,-5.206l3.905,-1.302l0,1.302c2.603,1.301 1.301,3.904 -1.302,5.206l-3.904,1.301l0,-1.301Zm163.991,0c-1.301,0 -1.301,-1.302 -1.301,-2.603l0,-2.603l1.301,0c1.302,0 2.603,1.301 3.905,2.603l1.301,2.603l-1.301,0c-1.302,1.301 -2.603,1.301 -3.905,0Zm6.508,-1.302l1.301,-2.603l2.603,0c1.302,0 3.905,0 3.905,1.302l-2.603,1.301c-1.302,1.302 -2.603,2.603 -3.905,2.603l-1.301,0l0,-2.603Zm104.121,-3.904l0,-2.603l3.905,0l0,3.904l-1.302,0l-2.603,0l0,-1.301Zm337.093,0c0,-1.302 1.302,-2.603 2.603,-3.905l2.603,-1.301l1.302,0l0,3.904l-1.302,2.603l-2.603,0l-2.603,0l0,-1.301Zm-343.6,-1.302c0,-1.301 -1.302,-2.603 -1.302,-3.904l0,-1.302l6.508,0l0,1.302c0,0 0,2.603 -1.302,2.603l0,2.603l-1.301,0c0,0 -1.302,-1.302 -2.603,-1.302Zm329.284,0c-1.302,0 -1.302,-1.301 0,-2.603l0,-1.301l-1.302,0c0,0 -1.301,1.301 -2.603,1.301l-1.301,1.302l0,-2.603l0,-3.905l-5.206,0l-5.207,0l0,-1.302l1.302,-1.301l9.111,0l2.603,1.301l0,-2.603l0,-2.603l1.301,0c3.905,0 6.508,6.508 5.206,11.714l0,3.905l-1.301,0c-1.302,0 -2.603,0 -2.603,-1.302Zm-359.219,-1.301l1.301,-1.302l2.603,0l0,2.603l-2.603,0l-1.301,0l0,-1.301Zm249.891,0l0,-1.302l0,-1.301l2.603,0l2.603,1.301l0,2.603l-1.301,0c-1.302,0 -2.603,0 -3.905,-1.301Zm150.976,-2.603c-1.301,0 -2.603,-2.604 -2.603,-2.604l0,-2.603l2.603,1.302c3.905,2.603 5.206,3.905 2.603,5.206l-1.301,1.302l-1.302,-2.603Zm-559.653,-1.302l-2.603,-1.302l1.302,-2.603l0,-2.603l2.603,0l1.301,2.603l0,2.603l2.603,0l0,3.905l-1.301,0c0,0 -1.302,-1.301 -3.905,-2.603Zm7.809,0c-1.301,-1.302 -2.603,-2.603 -2.603,-3.905l0,-1.301l5.207,0l0,3.904l1.301,0l2.603,1.302l-1.301,1.302l-1.302,1.301l-3.905,-2.603Zm127.549,-1.302l0,-2.603l3.905,1.302l3.904,0l-1.301,2.603c-1.302,0 -2.603,1.302 -3.905,1.302l-2.603,0l0,-2.604Zm63.775,1.302c-1.302,0 -1.302,-2.603 -1.302,-3.905l0,-3.904l7.809,0l0,1.301c0,1.302 -3.904,7.81 -5.206,7.81c-1.301,0 -1.301,0 -1.301,-1.302Zm101.518,-1.302c0,-1.301 1.302,-2.603 3.905,-1.301l1.301,0l0,2.603l-2.603,0l-2.603,0l0,-1.302Zm-360.52,-2.603l0,-2.603l-2.604,0l-2.603,0l1.302,-1.301c0,-1.302 1.301,-3.905 1.301,-5.206c0,-6.508 9.111,-13.015 11.714,-7.809l0,1.301l-2.603,1.302l-2.603,1.301l1.302,0c1.301,0 2.603,0 3.904,1.302l0,1.301l-1.301,1.302l-1.302,1.301l-1.301,-2.603l-2.603,-1.301c-1.302,0 -1.302,2.603 -1.302,3.904l-1.301,3.905l3.904,0l0,6.507l-1.301,0l-2.603,0l0,-2.603Zm79.392,-2.603l-2.603,-3.904l2.603,0c1.302,0 2.603,1.301 3.905,2.603c1.301,1.301 2.603,2.603 3.904,2.603l1.302,0l0,1.301c-1.302,0 -2.603,0 -3.905,1.302l-3.904,0l-1.302,-3.905Zm62.473,-1.301l0,-5.206l3.905,0c1.301,0 2.603,0 3.904,-1.302c0,-1.301 1.302,-1.301 1.302,-1.301l1.301,0l0,3.904l-2.603,0l-2.603,0l0,1.302c1.302,1.301 -1.301,6.507 -2.603,6.507l-2.603,1.302l0,-5.206Zm48.156,1.301l0,-2.603l2.603,0l1.302,1.302l1.301,-2.603l0,-2.603l2.603,1.301c1.302,0 2.603,1.302 3.905,0l1.301,0l0,1.302c0,1.301 -1.301,2.603 -1.301,3.904l-1.302,0l-1.301,-1.301l0,-1.302l-1.302,0l-1.301,0l1.301,2.603l0,1.302l-2.603,0l-2.603,0l0,2.603l-1.301,0l-1.302,0l0,-3.905Zm24.729,2.603c0,-1.301 1.302,-2.603 2.603,-2.603l1.302,0l0,3.905l-2.603,0l-1.302,0l0,-1.302Zm-40.347,-2.603c0,-1.301 -1.302,-2.603 -1.302,-3.904l0,-1.302l1.302,0c1.302,0 3.905,2.603 3.905,5.206l0,1.302l-1.302,0c0,0 -1.301,-1.302 -2.603,-1.302Zm429.501,0l0,-2.603l2.603,0c2.603,-1.301 3.905,0 3.905,2.603l0,1.302l-2.603,0l-3.905,0l0,-1.302Zm-540.13,-1.301c0,-1.302 0,-1.302 1.301,-1.302l0,2.603l-1.301,0l-1.302,0l1.302,-1.301Zm227.766,-2.603c-2.603,-1.302 -3.905,-9.111 0,-11.714l1.301,-1.301l2.603,1.301c0,2.603 1.302,3.905 1.302,3.905l0,2.603l1.301,-3.905l1.302,-2.603l1.301,0c3.905,1.302 2.603,6.508 0,9.111c-3.904,3.904 -6.507,5.206 -9.11,2.603Zm88.503,-2.603l0,-2.603l3.904,0l0,1.301c1.302,2.603 0,3.905 -2.603,3.905l-1.301,0l0,-2.603Zm111.93,0l0,-2.603l-2.603,0c-2.603,0 -5.206,-2.603 -5.206,-7.809l0,-3.905l2.603,1.302l1.302,1.301l1.301,-1.301l2.603,-1.302l3.905,1.302l2.603,2.603l0,2.603c-1.301,1.301 -1.301,2.603 0,3.904l1.302,1.302l1.301,-1.302l2.603,0l0,1.302l1.302,1.301l-2.603,1.302c-1.302,1.301 -3.905,1.301 -6.508,2.603l-3.905,0l0,-2.603Zm-160.086,0c-1.302,-1.302 -1.302,-2.603 0,-3.905c0,-1.301 1.301,-3.904 1.301,-6.507c1.302,-2.603 2.603,-5.206 3.905,-6.508l1.301,0l0,-2.603l0,-2.603l3.905,-1.302l3.904,-1.301l1.302,1.301c0,1.302 -1.302,3.905 -5.206,5.207l-2.603,1.301l0,6.508l2.603,1.301l1.301,0l0,1.302c0,3.904 -3.904,7.809 -7.809,7.809l-3.904,1.301l0,-1.301Zm-296.746,-3.905c1.301,-1.301 0,-2.603 0,-3.904c-1.302,0 -1.302,-2.603 0,-3.905l1.301,-3.904l-2.603,0l-1.302,-1.302l1.302,-1.301l2.603,-1.302l2.603,1.302l1.302,1.301l-1.302,1.302c-1.301,1.301 -1.301,2.603 -1.301,2.603l0,1.301l3.904,0l0,2.603l-2.603,0l-1.301,1.302l0,2.603l1.301,1.301l-2.603,1.302l-1.301,0l0,-1.302Zm225.162,-1.301c-1.301,0 -2.603,-1.302 -2.603,0l-1.301,0l0,-1.302l0,-1.301l2.603,0l0,-3.905l1.301,-2.603l1.302,2.603c1.301,1.302 1.301,3.905 1.301,5.206l0,2.603l-2.603,-1.301Zm-145.77,-3.905c0,-1.301 1.302,-2.603 2.603,-2.603l1.302,0l0,2.603c0,1.302 -1.302,2.603 -2.603,2.603l-1.302,0l0,-2.603Zm260.304,-2.603c0,-3.904 2.603,-6.507 7.809,-6.507l3.904,0l1.302,2.603c0,1.301 0,3.904 -1.302,5.206l-2.603,2.603l-1.301,-2.603l-1.302,-1.302l-1.301,1.302c-1.302,0 -2.603,1.301 -3.905,1.301l-1.301,0l0,-2.603Zm-376.139,-1.301c1.302,-1.302 1.302,-3.905 2.603,-3.905l1.302,0l0,1.302l1.301,1.301l-1.301,0l-1.302,0l0,3.905l-1.301,0l-1.302,0l0,-2.603Zm62.473,1.301c0,-1.301 -1.302,-3.904 -2.603,-5.206c0,-1.301 -1.302,-3.904 -2.603,-5.206l-1.302,-1.302l0,-1.301l1.302,-2.603l5.206,0l1.301,2.603l0,1.301l2.603,0l1.302,-1.301l1.301,1.301l0,1.302l-1.301,1.302l-1.302,2.603l1.302,0l0,1.301l-1.302,0l-1.301,0l0,3.905l2.603,-1.302l1.301,0l0,3.905l-2.603,0c-1.301,0 -2.603,-1.302 -3.904,-1.302Zm-74.187,-2.603c0,-1.301 1.302,-2.603 2.603,-2.603l2.603,0l0,3.905l-2.603,0l-2.603,0l0,-1.302Zm121.042,0l1.301,-1.301l1.302,0c1.301,0 3.904,0 5.206,-1.302c0,-1.301 2.603,-1.301 3.904,-1.301l2.603,1.301l0,3.905l-1.301,0l-2.603,0l0,-1.302l0,-1.301l-2.603,1.301c-1.302,1.302 -3.905,1.302 -5.206,1.302l-2.603,0l0,-1.302Zm-101.519,-3.904c-1.301,0 -1.301,-2.603 -1.301,-5.207l0,-5.206l2.603,-1.301c0,0 2.603,0 2.603,1.301c1.301,0 3.904,1.302 5.206,1.302c3.904,0 5.206,2.603 5.206,5.206l-1.302,2.603l-2.603,0l-3.904,0l0,-1.301c0,0 1.301,-1.302 2.603,-2.604l1.301,-1.301l-1.301,0c0,-1.302 -2.603,-1.302 -3.905,0l-2.603,1.301l1.302,3.905l0,2.603l-1.302,0c-1.301,0 -2.603,0 -2.603,-1.301Zm-11.714,-1.302l-2.603,-2.603l1.302,-1.302l2.603,-2.603l-2.603,0c-1.302,-1.301 -2.603,-2.603 -2.603,-3.904l-1.302,-1.302l6.508,0l1.301,2.603c0,1.302 1.302,2.603 1.302,5.206c1.302,2.604 1.302,5.207 -1.302,5.207c0,0 -1.301,-1.302 -2.603,-1.302Zm29.935,-5.206l0,-2.603l3.905,0l0,3.904l-1.302,0l-2.603,0l0,-1.301Zm13.016,-2.603c0,-1.302 3.904,-6.508 5.206,-6.508l1.301,0l0,1.302c0,2.603 -3.904,6.507 -5.206,6.507l-1.301,0l0,-1.301Zm174.403,0l-1.302,0l2.604,-2.603c1.301,-1.302 2.603,-2.603 3.904,-2.603l2.603,0l0,2.603c0,1.301 -6.507,3.904 -7.809,2.603Zm-191.323,-2.603l-1.302,-2.603l2.603,-2.603c1.302,-1.302 2.603,-2.603 3.905,-2.603l0,1.301c0,1.302 -1.302,3.905 -1.302,5.206l-2.603,3.905l-1.301,-2.603Zm37.744,0l-2.603,-1.302l3.904,-1.301c1.302,-1.302 3.905,-3.905 3.905,-3.905l1.301,-1.301l0,7.809l-2.603,1.301c-1.301,0 -2.603,0 -3.904,-1.301Zm97.614,-2.603l0,-2.603l3.904,0l0,3.904l-1.301,0l-2.603,1.302l0,-2.603Zm430.802,-2.603c-1.301,-1.302 -1.301,-3.905 -1.301,-5.206l0,-2.603l3.904,0l0,5.206l1.302,5.206l-2.603,0l-1.302,0l0,-2.603Zm7.809,0c2.603,-6.508 3.905,-9.111 6.508,-9.111l2.603,0l0,2.603l-1.301,0l-1.302,0l0,1.302c0,1.301 -3.905,7.809 -6.508,7.809l0,-2.603Zm-171.8,0l-1.302,-1.302l0,-2.603l1.302,-2.603l2.603,2.603l0,5.206l-2.603,-1.301Zm-209.544,-2.603c-1.302,-1.302 -2.604,-2.603 -3.905,-1.302l-2.603,0c0,-1.301 0,-2.603 1.301,-5.206l1.302,-2.603l2.603,1.302c0,1.301 1.302,2.603 1.302,3.904l0,1.302l5.206,0l0,5.206l-1.302,0c-1.301,0 -2.603,-1.302 -3.904,-2.603Zm-15.619,0c0,0 1.302,-1.302 2.603,-2.603c0,-1.302 1.302,-2.603 1.302,-3.905l0,-1.301l3.904,0l0,2.603c0,2.603 -3.904,6.507 -6.507,6.507l-1.302,0l0,-1.301Zm-171.8,-1.302c-1.302,0 -1.302,-1.301 -1.302,-1.301l0,-1.302l1.302,0c0,0 2.603,0 3.904,-2.603l2.603,-2.603l0,9.111l-2.603,0c-2.603,0 -3.904,0 -3.904,-1.302Zm247.288,-1.301l-1.301,-1.302l1.301,0l-1.301,-2.603l-2.603,-2.603l1.301,-1.301l1.302,0l1.301,1.301c0,0 1.302,2.603 1.302,3.905l1.301,3.904l-1.301,0c0,0 -1.302,0 -1.302,-1.301Zm145.77,0l-1.301,-1.302l2.603,0l0,2.603c-1.302,0 -1.302,0 -1.302,-1.301Zm152.278,-3.905l-1.301,-3.904l1.301,-1.302l1.302,-1.301l2.603,2.603l2.603,1.301l-1.302,3.905c-1.301,1.301 -2.603,2.603 -2.603,2.603l-1.301,0l-1.302,-3.905Zm-463.34,-3.904l1.301,-1.302l1.302,0l1.301,1.302l0,2.603l-1.301,0l-2.603,0l0,-2.603Zm156.182,1.301c-1.302,-1.301 -1.302,-2.603 -1.302,-7.809l0,-2.603l2.603,1.302c1.302,1.301 2.603,2.603 2.603,6.507l0,3.905l-1.301,0c0,0 -1.302,0 -2.603,-1.302Zm-243.384,-1.301c0,0 1.301,-1.302 1.301,-2.603c1.302,0 2.603,-2.603 2.603,-3.905l0,-2.603l-2.603,-1.302l-1.301,0l-1.302,2.604l-1.301,3.904l-2.603,0l-3.905,0l0,-1.301c0,-2.603 3.905,-5.207 6.508,-6.508c2.603,0 7.809,-6.508 7.809,-9.111l0,-1.301l2.603,0l0,3.904l7.809,0l1.302,3.905l0,3.904l3.904,0l2.603,1.302l3.905,-3.905l2.603,-2.603c0,1.302 0,2.603 -1.302,3.905l-1.301,2.603l1.301,0l1.302,-1.302l0,1.302c0,1.302 -2.603,3.905 -6.508,5.206c-2.603,0 -5.206,1.302 -5.206,1.302l-1.301,0l1.301,-2.603l1.302,-1.302c0,-1.301 -1.302,-1.301 -3.905,-1.301l-2.603,-1.302l0,3.905c0,2.603 -1.302,2.603 -5.206,5.206c-3.905,0 -6.508,1.301 -6.508,1.301l-1.301,0l0,-1.301Zm449.024,0l0,-2.603l3.904,0l0,3.904l-1.301,0l-2.603,0l0,-1.301Zm74.186,-1.302c0,0 0,-2.603 1.302,-2.603l1.301,-1.301l2.603,2.603l0,1.301l-1.301,2.603l-1.302,0l-1.301,0l-1.302,-2.603Zm-601.301,0l0,-2.603l-2.603,0l-2.603,0l0,-2.603c1.301,0 1.301,-1.301 1.301,-2.603l3.905,0l0,1.302c0,1.301 1.301,2.603 2.603,3.904l1.301,1.302l0,1.301c-1.301,0 -2.603,1.302 -2.603,1.302l-1.301,0l0,-1.302Zm404.772,-1.301c-1.302,0 -1.302,-2.603 0,-2.603l0,-2.603l-2.603,0l-2.603,0l0,-3.905l0,-3.905l2.603,0l1.301,2.603c0,1.302 1.302,2.603 3.905,3.905l3.905,2.603l0,1.302c0,1.301 -2.604,2.603 -3.905,2.603l-2.603,1.301l0,-1.301Zm-381.345,-6.508l-1.301,-1.302l0,-1.301l1.301,-1.302l-3.905,1.302l-3.904,0l0,-2.603l0,-2.603l3.904,0c5.207,-1.302 5.207,-1.302 5.207,2.603l0,2.603l3.904,-1.302c1.302,-1.301 3.905,-1.301 3.905,-1.301l0,1.301l-1.302,0c0,0 -2.603,1.302 -3.904,2.603l-2.603,2.604l-1.302,-1.302Zm620.824,-1.302l0,-2.603l5.206,0l0,3.905l-2.603,0l-2.603,0l0,-1.302Zm11.714,0c0,-1.301 2.603,-2.603 3.905,-2.603l2.603,0l0,2.603l-2.603,0c0,1.302 -2.603,1.302 -2.603,1.302l-1.302,0l0,-1.302Zm-611.714,-3.904l0,-2.603l-2.603,0c-2.603,1.301 -5.206,1.301 -5.206,0l-2.603,0l0,-1.302l0,-1.301l5.206,0c2.603,-1.302 5.206,0 6.508,0c1.301,1.301 2.603,1.301 3.904,1.301l2.603,-1.301l0,-2.603c0,-1.302 -1.301,-2.603 -2.603,-3.905c-1.301,-1.301 -2.603,-2.603 -2.603,-3.904l0,-1.302l2.603,0l0,1.302c0,1.301 0,2.603 1.302,3.904l2.603,0l0,-1.301l-1.302,-2.603l-1.301,-2.603l1.301,0c0,-1.302 1.302,-1.302 2.603,0l1.302,0l0,5.206l1.302,-2.603c1.301,-1.302 2.603,-2.603 2.603,-3.905c0,-1.301 5.206,-6.507 6.507,-6.507l1.302,0l0,3.904l-1.302,0l-2.603,1.302l0,5.206l-1.301,0l-1.302,0l0,3.904l2.603,0l0,3.905l-1.301,0l-2.603,-1.302l0,2.603l1.301,1.302l-1.301,0l-1.302,0l0,-2.603l0,-2.603l-2.603,-1.302l-1.302,0l0,2.603c0,2.603 -2.603,5.206 -5.206,7.809l-5.206,3.905l0,-2.603Zm652.061,0l0,-2.603l3.905,0l0,3.904l-1.302,0l-2.603,0l0,-1.301Zm-713.232,-2.603l0,-2.603l1.301,0c1.302,0 3.905,-1.302 3.905,-2.603l2.603,-1.302l2.603,2.603l-3.904,2.603c-1.302,1.302 -3.905,2.603 -5.207,2.603l-1.301,0l0,-1.301Zm279.826,-1.302c-1.301,0 0,-1.301 0,-2.603l1.302,-1.301l2.603,0l1.301,1.301l-1.301,2.603c-1.302,1.302 -3.905,1.302 -3.905,0Zm421.692,0l0,-2.603l3.905,0l0,3.905l-1.302,0l-2.603,0l0,-1.302Zm-275.922,-1.301c0,0 1.302,-1.302 3.905,-2.603l2.603,-1.302l1.302,0l0,1.302l-1.302,1.301c-1.301,1.302 -2.603,2.603 -3.904,2.603l-2.604,0l0,-1.301Zm-365.726,-3.905l-2.603,-2.603l0,-1.301l1.301,-2.603l1.302,0c0,0 1.301,1.301 2.603,3.904l1.301,3.905l0,1.301l-1.301,0l-2.603,-2.603Zm238.178,0c0,0 -1.302,-1.301 -1.302,-2.603l1.302,-1.301l3.904,0l0,3.904l-1.301,0l-2.603,1.302l0,-1.302Zm118.438,-2.603c-1.302,0 -1.302,-2.603 -1.302,-3.904l0,-3.905l1.302,0c2.603,0 5.206,5.206 5.206,7.809l-1.302,1.302l-1.301,0c-1.302,0 -2.603,0 -2.603,-1.302Zm119.74,0c0,-1.301 -1.302,-3.904 -1.302,-6.507l0,-5.206l1.302,0c0,0 1.301,1.301 2.603,2.603c1.301,2.603 2.603,3.904 5.206,3.904l2.603,1.302l0,2.603l-2.603,0l-2.603,0l0,2.603l-1.302,0c-1.301,0 -2.603,-1.302 -3.904,-1.302Zm-419.089,-2.603c0,-1.301 -1.302,-2.603 -1.302,-3.904l0,-2.603l3.905,0l0,3.904l1.301,2.603l-1.301,0l-1.302,1.302l-1.301,-1.302Zm52.06,0l0,-2.603l6.508,0l0,3.905l-2.603,0l-3.905,0l0,-1.302Zm256.399,0c0,-1.301 -1.301,-2.603 -1.301,-3.904l0,-1.302l3.905,0l0,6.508c0,0 -1.302,-1.302 -2.604,-1.302Zm-272.017,-3.904l-1.301,-1.302l1.301,-1.301c1.302,-1.302 2.603,-1.302 3.905,-1.302l1.301,0l0,3.905l-1.301,0c-1.302,1.301 -2.603,0 -3.905,0Zm553.145,-2.603l0,-2.603l-3.904,0l-2.603,0l0,-1.302c0,-1.301 0,-2.603 1.301,-2.603l1.302,-1.301l1.301,1.301l1.302,2.603l2.603,-3.904c1.302,-2.603 2.603,-3.905 2.603,-3.905l1.302,0l0,3.905c0,2.603 -1.302,5.206 -1.302,7.809l-2.603,2.603l-1.302,-2.603Zm-187.418,-1.302c0,-1.301 -3.905,-1.301 -5.206,-1.301l-5.206,0l0,-1.302l-1.302,-2.603l9.111,0l10.412,1.302l0,5.206l-2.603,0c-2.603,0 -3.905,-1.302 -5.206,-1.302Zm149.674,0c0,-1.301 2.603,-2.603 3.905,-2.603l2.603,0l0,3.905l-3.905,0l-2.603,0l0,-1.302Zm-261.605,-1.301c0,-2.603 1.302,-3.905 3.905,-2.603l1.301,0l0,3.904l-2.603,0l-2.603,0l0,-1.301Zm-400.867,-1.302l0,-2.603l3.904,0l0,3.905l-1.301,0l-2.603,0l0,-1.302Zm179.609,-5.206l0,-2.603l3.905,0l0,2.603c0,1.302 -1.302,2.603 -2.603,2.603l-1.302,0l0,-2.603Zm471.15,0l0,-2.603c1.301,0 2.603,0 2.603,1.302l2.603,0l0,2.603l-2.603,0l-2.603,0l0,-1.302Zm-154.881,-3.905l-2.603,-2.603l3.905,0l0,-1.301l0,-1.302l1.301,0c1.302,0 2.603,-1.301 3.905,-2.603l1.301,-1.301l2.603,0l2.603,1.301l-1.301,2.603l-1.302,1.302l5.206,0l1.302,2.603c0,3.905 0,3.905 -3.905,2.603l-3.904,0l0,-2.603l0,-1.302l-1.302,0l-1.301,0l0,1.302l1.301,1.301l-2.603,1.302c-2.603,1.302 -2.603,1.302 -5.206,-1.302Zm158.785,1.302l-1.301,-1.302c0,-1.301 1.301,0 2.603,0l2.603,1.302l-1.302,0c0,1.302 -1.301,0 -2.603,0Zm-501.084,-5.206c0,-2.603 0,-5.206 1.301,-5.206l0,-1.302l2.603,1.302c1.302,0 2.603,1.301 3.905,1.301l2.603,1.302l-1.302,2.603c-1.301,0 -2.603,1.301 -3.904,1.301c-1.302,0 -2.603,1.302 -2.603,2.603l-2.603,1.302l0,-5.206Zm491.974,0l0,-2.603l-3.905,0l-3.904,0l-1.302,1.301l-1.301,0c0,-1.301 -1.302,-2.603 -1.302,-3.904l0,-2.603l1.302,0l2.603,-1.302l-2.603,-1.301l-1.302,-2.603c0,-1.302 2.603,-1.302 5.206,-1.302l3.905,-1.301l0,2.603l-1.302,0l-2.603,1.301l5.206,5.206l2.603,-2.603l1.302,-1.301l2.603,1.301c0,2.603 1.301,3.905 1.301,5.206l0,1.302l-1.301,0l-2.603,1.301l0,1.302c0,1.301 0,2.603 -1.302,2.603l-1.301,1.301l0,-3.904Zm-547.94,0l0,-1.302l2.603,-2.603c1.302,-1.301 2.604,-2.603 3.905,-2.603l1.302,0l0,2.603l-1.302,1.302l1.302,1.301l2.603,1.302l-2.603,0c-1.302,-1.302 -3.905,-1.302 -5.207,0l-1.301,1.301l-1.302,-1.301Zm-79.392,-1.302l0,-1.301l2.603,-2.603c2.603,-2.603 6.507,-2.603 7.809,0l1.301,2.603l-5.206,1.301l-5.206,1.302l-1.301,-1.302Zm653.362,-1.301l0,-2.603l3.905,0l0,2.603l1.301,1.301l-2.603,0l-2.603,0l0,-1.301Zm-200.434,-2.603l0,-2.603l3.905,0l0,3.904l-1.302,0l-2.603,0l0,-1.301Zm-486.768,-1.302c0,-1.301 1.302,-3.904 3.905,-3.904l1.301,0l0,3.904l-1.301,0l-2.603,1.302l-1.302,-1.302Zm183.514,0l0,-1.301l-2.603,1.301l-1.301,0l0,-1.301l0,-1.302l6.507,0l6.508,1.302l1.302,1.301l0,1.302l-5.206,0c-2.604,0 -3.905,-1.302 -5.207,-1.302Zm-149.674,-3.904l0,-1.302l2.603,0l0,2.603l-1.302,0l-1.301,0l0,-1.301Zm581.779,-3.905c0,-1.301 1.301,-2.603 3.904,-1.301l1.302,0l0,2.603l-2.603,0l-2.603,0l0,-1.302Zm-467.246,-2.603c-1.301,-1.301 -2.603,-2.603 -2.603,-2.603l0,-1.301l5.206,0l0,2.603c1.302,1.301 1.302,2.603 0,2.603l-1.301,1.301l-1.302,-2.603Zm240.781,-1.301c1.302,-3.905 11.714,-3.905 11.714,0l0,1.301l-6.508,0l-6.507,0l1.301,-1.301Zm225.163,-3.905c0,-3.904 3.905,-7.809 6.508,-7.809l1.301,0l0,1.302l-1.301,1.301l3.904,0l0,7.809l-1.301,0l-1.302,0l0,-2.603l-1.301,-2.603l-1.302,0l-1.301,0l0,1.302c1.301,2.603 -1.302,5.206 -3.905,5.206l-1.301,0l1.301,-3.905Zm-613.015,0l-1.302,-1.301l2.603,0c1.302,0 3.905,1.301 3.905,2.603l0,1.301l-1.302,0c-1.301,0 -2.603,-1.301 -3.904,-2.603Zm182.212,-1.301l-1.301,-1.302l0,-1.301l1.301,-1.302l2.603,1.302c1.302,1.301 2.604,1.301 2.604,2.603l0,1.301l-1.302,0l-2.603,1.302l-1.302,-2.603Zm449.024,1.301c-1.301,0 -3.904,-1.301 -3.904,-2.603l0,-1.301l5.206,0c2.603,-1.302 5.206,-1.302 6.507,-1.302l0,1.302l-2.603,2.603c-1.301,1.301 -2.603,1.301 -5.206,1.301Zm-462.039,-1.301l-1.301,-1.302l1.301,0c1.302,-1.301 3.905,0 3.905,1.302l0,1.301l-1.302,0c-1.301,0 -2.603,0 -2.603,-1.301Zm538.829,0l0,-2.603l3.904,0l0,3.904l-1.301,0l-2.603,0l0,-1.301Zm-108.026,-1.302l0,-2.603l3.904,0l0,3.905l-1.301,0l-2.603,0l0,-1.302Zm-210.846,-5.206l0,-1.302l3.904,-1.301c1.302,-1.302 2.603,-1.302 3.905,-1.302l0,3.905l-2.603,0c0,1.302 -2.603,1.302 -3.905,1.302l-1.301,0l0,-1.302Zm72.885,-1.302l0,-2.603l2.603,0l0,3.905l-1.302,0l-1.301,0l0,-1.302Zm248.59,-1.301c0,-2.603 2.603,-3.905 3.904,-2.603l1.302,0l-1.302,2.603l0,2.603l-2.603,0l-2.603,0l1.302,-2.603Zm-602.603,-1.302l0,-2.603c1.301,-1.301 7.809,1.302 7.809,3.905l1.302,1.301l-3.905,0l-3.905,0l-1.301,-2.603Zm275.922,0c-1.302,0 -1.302,-2.603 0,-2.603l0,-1.301l-2.603,-1.302c-1.302,-1.301 -5.206,-2.603 -7.809,-2.603l-3.905,0l0,-1.301c0,0 0,-1.302 1.302,-2.603l1.301,0l1.302,1.301l2.603,1.302l0,-2.603l1.301,-1.302l2.603,1.302l2.603,0l1.302,-1.302l2.603,-2.603l5.206,2.603l0,1.302c0,0 -1.302,1.301 -2.603,2.603l-2.603,1.301l0,3.905c1.301,2.603 1.301,3.904 0,5.206l-2.603,1.301l0,-2.603Zm-242.083,0l-2.603,0l0,-1.301c0,0 1.302,-2.603 2.603,-3.905l2.603,-1.301l1.302,1.301c2.603,3.905 1.301,6.508 -3.905,5.206Zm598.699,0l0,-2.603l2.603,0l1.301,1.302l0,1.301l1.302,1.302l-3.905,0l-2.603,0l1.302,-1.302Zm-589.588,-2.603c0,-1.301 0,-2.603 1.302,-3.904l1.301,0l2.603,2.603l-1.301,1.301c-1.302,1.302 -2.603,1.302 -2.603,1.302l-1.302,0l0,-1.302Zm279.826,0c0,-1.301 1.302,-2.603 2.603,-2.603l2.604,0l0,1.302c0,1.301 -1.302,2.603 -2.604,2.603l-2.603,0l0,-1.302Zm-28.633,-2.603l0,-2.603l2.603,0c1.302,1.302 1.302,2.603 1.302,3.905l0,1.301l-1.302,0l-1.301,0l-1.302,-2.603Zm-270.716,-2.603c0,-2.603 0,-3.904 2.603,-5.206c1.302,-1.301 2.603,-3.904 2.603,-5.206l0,-2.603l2.603,0l1.302,3.905c1.301,3.904 1.301,5.206 -2.603,5.206l-1.302,0l1.302,1.301l1.301,0l0,5.206l-2.603,0c0,1.302 -2.603,1.302 -2.603,1.302l-1.301,0l-1.302,-3.905Zm28.634,2.603l0,-1.301l2.603,0l0,-1.302c0,-1.301 -1.302,-3.904 -3.905,-5.206l-3.904,-3.904l0,1.301c-1.302,1.302 -2.603,1.302 -2.603,1.302l-1.302,0l0,-3.905l1.302,-2.603l3.904,-1.301l3.905,-1.302l1.301,2.603l2.603,1.302l1.302,0l1.301,-1.302l0,2.603l2.603,0c2.603,0 3.905,1.302 2.603,5.206l0,3.905l-2.603,0l-1.301,0l0,5.206l-3.905,0l-3.904,0l0,-1.302Zm136.659,0c-1.301,-1.301 -1.301,-3.904 -1.301,-3.904l1.301,-2.603l5.206,0l0,2.603l-1.301,0l-2.603,-1.302l1.301,3.905l0,2.603c-1.301,0 -1.301,-1.302 -2.603,-1.302Zm333.189,0l0,-2.603l5.206,0l0,3.905l-2.603,0l-2.603,0l0,-1.302Zm-454.23,-7.809c1.301,-1.301 0,-3.904 -2.603,-5.206l-2.603,-3.904l1.301,0c1.302,-1.302 3.905,0 3.905,2.603l0,1.301l1.301,0c1.302,0 2.603,1.302 3.905,2.603l1.301,1.302l-1.301,2.603c-2.603,0 -3.905,1.301 -3.905,1.301l-1.301,0l0,-2.603Zm-32.538,-3.904l-1.302,-1.302l1.302,-1.301l3.904,0l1.302,1.301l-1.302,2.603l0,1.302l-1.301,0l-2.603,0l0,-2.603Zm491.974,0c-1.302,-1.302 -2.603,-2.603 -2.603,-3.905l0,-1.301l1.301,0c1.302,0 7.809,5.206 7.809,6.507l0,1.302l-1.301,0c-1.302,0 -3.905,-1.302 -5.206,-2.603Zm80.694,1.301l-1.302,-2.603l6.508,0l0,3.905l-1.301,0c-1.302,0 -2.603,-1.302 -3.905,-1.302Zm-662.473,-1.301l0,-2.603l3.905,0l0,3.904l-1.302,0l-2.603,0l0,-1.301Zm601.302,-1.302c0,-1.301 1.301,-2.603 2.603,-2.603l2.603,0l0,3.905l-2.603,0l-2.603,0l0,-1.302Zm-5.206,-1.301c0,-1.302 1.301,-2.603 2.603,-2.603l1.301,0l0,3.904l-2.603,0l-1.301,0l0,-1.301Zm54.663,0c0,-1.302 1.302,-2.603 1.302,-3.905l1.301,0l1.302,1.302c1.301,2.603 0,3.904 -2.603,3.904l-1.302,0l0,-1.301Zm-572.668,-3.905c-1.301,-1.301 -2.603,-2.603 -3.904,-3.904l-2.603,-1.302l1.301,-1.301c0,-1.302 1.302,-1.302 3.905,-1.302l3.904,0l0,3.905l-2.603,0l-1.301,-1.302l1.301,1.302c0,1.301 1.302,1.301 2.603,1.301l1.302,0l0,2.603c0,1.302 -1.302,2.603 -2.603,2.603l-1.302,0l0,-2.603Zm234.274,0c-1.302,0 -1.302,-1.301 -1.302,-3.904l0,-2.603l3.905,0l0,7.809l-1.302,0c0,0 -1.301,0 -1.301,-1.302Zm257.7,0l-2.603,0l0,-2.603l0,-1.301l2.603,0c1.302,-1.302 2.603,-1.302 3.905,0l2.603,0l0,1.301c0,1.302 -2.603,3.905 -3.905,3.905c0,0 -1.301,0 -2.603,-1.302Zm70.282,-5.206l0,-2.603l6.508,0l0,2.603l1.301,1.302l-3.904,0l-5.206,0l1.301,-1.302Zm33.84,-3.905l-1.302,-2.603c0,-1.301 2.603,-1.301 3.905,-1.301l3.904,-1.302l0,2.603c-1.301,0 -1.301,2.603 -1.301,2.603l0,1.302l-1.302,0c0,0 -1.301,-1.302 -3.904,-1.302Zm-141.866,-2.603c-1.301,0 -1.301,-1.301 -1.301,-2.603c0,-2.603 -2.603,-5.206 -3.905,-7.809c-2.603,-2.603 -5.206,-5.206 -5.206,-6.507l0,-1.302l-1.302,0c-1.301,0 -2.603,1.302 -3.904,2.603c-1.302,1.302 -3.905,2.603 -5.206,2.603l-1.302,0l0,7.809l3.905,0l0,2.603l1.301,1.302l-1.301,0c-1.302,0 -3.905,-2.603 -6.508,-5.206l-3.904,-3.905l2.603,-1.301l1.301,-1.302l-2.603,-1.301l-2.603,-2.603l-1.301,1.301c-1.302,1.302 -1.302,2.603 0,5.206l1.301,3.905l-1.301,0c-1.302,0 -2.603,-1.302 -3.905,-2.603c-1.301,-3.905 -2.603,-5.206 -3.904,-2.603c-1.302,1.301 -2.603,1.301 -2.603,1.301l-1.302,0l0,-1.301l0,-2.603l5.206,0l0,-1.302l0,-2.603l-2.603,0l-1.301,-1.301l0,-1.302c1.301,-1.301 2.603,-1.301 3.904,-1.301l2.603,0l0,2.603l-1.301,2.603l3.904,0l0,-2.603c0,-1.302 0,-2.603 1.302,-3.905l1.301,0l2.603,1.302c1.302,2.603 10.412,2.603 14.317,1.301c0,-1.301 3.905,-1.301 7.809,0l5.206,1.302l1.302,1.301c0,1.302 -1.302,3.905 -2.603,5.206l-1.302,2.603l9.111,0l0,2.603l-3.905,1.302l-2.603,1.301l3.905,3.905l-1.302,1.301l-2.603,1.302l0,-1.302Zm-219.956,-1.301l-1.302,0l0,-1.302l0,-1.301l3.905,0l3.904,1.301l0,-1.301l-1.301,0l1.301,-2.603c1.302,0 2.603,-1.302 3.905,-1.302l1.301,0l0,5.206l-1.301,0l-2.603,0l0,2.603l-2.603,0c-1.302,0 -3.905,0 -5.206,-1.301Zm-308.46,-2.603l-2.603,0l0,-1.302l0,-1.301l2.603,0c0,0 2.603,-1.302 3.904,-1.302l2.603,-1.301l1.302,0l0,1.301l-2.603,2.603c-1.302,1.302 -2.603,2.603 -2.603,2.603c0,0 -1.302,0 -2.603,-1.301Zm206.941,-10.412c-2.603,0 -3.904,-1.302 -5.206,-1.302l-1.301,-1.301l1.301,-1.302c0,-2.603 3.905,-1.301 6.508,1.302l1.301,1.301l1.302,0l0,-1.301l-1.302,-1.302l-1.301,-1.301l1.301,-1.302c1.302,0 2.603,-1.301 3.905,0l1.301,0l0,1.302c0,2.603 -3.904,6.507 -5.206,6.507c0,0 -1.301,0 -2.603,-1.301Zm-80.694,-2.603l-1.302,0l0,-2.603c0,0 0,-1.302 1.302,-2.603l1.301,0l3.905,2.603l2.603,2.603l-1.301,0l-2.603,0c-1.302,1.301 -2.604,1.301 -3.905,0Zm433.406,0c-2.603,0 -5.206,-1.302 -7.81,-2.603l-2.603,-1.302l1.302,-1.301c0,-2.603 9.111,-6.508 11.714,-6.508c1.301,0 3.904,0 3.904,1.302l2.603,0l-1.301,5.206c0,3.904 -2.603,6.507 -3.905,6.507c0,0 -2.603,-1.301 -3.904,-1.301Zm-441.215,-2.603l0,-3.905l3.904,0l0,2.603c0,1.302 -1.301,3.905 -2.603,3.905l-1.301,0l0,-2.603Zm98.915,0l-1.301,0l0,-2.603l0,-1.302l1.301,0c0,0 1.302,1.302 2.603,1.302l1.302,2.603l-1.302,0c0,1.301 -1.301,1.301 -2.603,0Zm18.221,-3.905c-1.301,0 -3.904,0 -6.507,-1.301c-5.206,0 -5.206,0 -3.905,-3.905c0,-2.603 6.508,-5.206 7.809,-3.905l1.302,0l2.603,-2.603l2.603,-1.301l1.302,1.301c2.603,2.603 1.301,9.111 -1.302,11.714c-2.603,1.302 -2.603,1.302 -3.905,0Zm18.222,0l-3.905,0l0,-6.507c-1.301,-2.604 -1.301,-6.508 0,-6.508l1.302,-1.302l2.603,2.603l2.603,1.302l-1.302,1.301l0,2.604l1.302,1.301c2.603,1.302 3.904,5.206 1.301,5.206l-3.904,0Zm14.316,-1.301c1.302,0 1.302,-1.302 1.302,-2.603l2.603,0l0,5.206l-2.603,0l-1.302,0l0,-2.603Zm-123.644,-3.905l0,-2.603l3.905,0l0,3.905l-1.302,0l-2.603,1.301l0,-2.603Zm166.595,1.302l0,-2.603l3.904,0l0,3.904l-1.301,0l-2.603,0l0,-1.301Zm236.876,-1.302l0,-2.603l3.904,0l0,1.302c0,1.301 -1.301,2.603 -2.603,2.603l-1.301,0l0,-1.302Zm-545.336,-5.206c-1.302,0 -1.302,-1.302 -1.302,-1.302l0,-1.301l5.206,0l0,1.301c-1.301,2.603 -2.603,2.603 -3.904,1.302Zm313.666,0c-1.302,0 -1.302,-1.302 -1.302,-2.603l0,-1.302l2.603,1.302l1.302,0l0,3.904l-1.302,0c0,0 -1.301,0 -1.301,-1.301Zm-217.354,-7.809l0,-2.603l2.603,-1.302c1.302,-1.301 1.302,-3.904 1.302,-6.507l-1.302,-5.206l3.905,0l0,2.603c-1.302,2.603 3.904,6.507 7.809,5.206l2.603,0l0,2.603l-2.603,0c-1.302,0 -3.905,1.301 -5.206,2.603c-1.302,1.301 -3.905,2.603 -5.206,2.603l-1.302,0l1.302,1.301l0,1.302l-1.302,0l-1.301,0l-1.302,-2.603Zm-55.965,0c0,0 1.301,-1.302 3.904,-2.603l3.905,-1.302l2.603,2.603l0,1.302c-1.302,0 -3.905,1.301 -5.206,1.301l-5.206,0l0,-1.301Zm257.7,1.301c0,0 0,-2.603 1.302,-5.206l1.301,-3.904l-2.603,-1.302l-1.301,-1.301l1.301,-1.302c1.302,-1.301 2.603,-2.603 2.603,-3.904l0,-1.302l3.905,0l0,2.603c1.302,2.603 -1.302,10.412 -3.905,13.015l-2.603,2.603Zm196.53,-2.603l0,-2.603l5.206,0l0,2.603l1.301,1.302l-3.904,0l-3.905,0l1.302,-1.302Zm-16.92,-2.603l-1.302,-1.301l-1.301,1.301c-1.302,1.302 -2.603,1.302 -2.603,1.302l-1.302,0l0,-3.905l0,-5.206l1.302,1.302c1.301,0 1.301,1.301 1.301,2.603l0,1.301l6.508,0l0,5.206c-1.302,0 -1.302,-1.301 -2.603,-2.603Zm-404.772,-1.301l0,-2.603l1.301,0c1.302,-1.302 2.603,-3.905 2.603,-9.111l0,-2.603l2.603,0l3.905,1.302l-1.302,-2.603l0,-1.302l2.603,0l1.302,-1.301l0,7.809l-2.603,-1.302l-2.603,0l0,3.905c0,2.603 -3.905,9.11 -6.508,9.11l-1.301,0l0,-1.301Zm425.596,-2.603c-1.301,-1.302 0,-3.905 2.603,-3.905l2.603,0l0,5.206l-2.603,0c-1.301,0 -2.603,0 -2.603,-1.301Zm149.675,-1.302l0,-2.603l2.603,-1.301l2.603,0l2.603,2.603l-2.603,1.301c-1.302,1.302 -2.603,1.302 -3.905,1.302l-1.301,0l0,-1.302Zm-536.226,-3.904c0,-1.302 -1.301,-3.905 -1.301,-5.206l0,-2.603l-1.302,0l-1.301,0l0,2.603l1.301,1.301l-2.603,1.302l-1.301,0l0,-2.603c0,-1.302 -1.302,-2.603 -2.603,-3.905l-1.302,-1.301l3.905,-3.905c2.603,-2.603 3.904,-5.206 3.904,-7.809l-1.301,-2.603l2.603,0l0,1.301c0,1.302 2.603,1.302 5.206,2.603c2.603,0 5.206,1.302 5.206,1.302l1.301,1.301l-3.904,2.603l-3.905,1.302l0,2.603c1.302,1.302 1.302,3.905 1.302,5.206l0,2.603l3.904,0l-2.603,2.603l-1.301,2.603l0,1.302l-1.302,1.301l-2.603,-3.904Zm365.727,0c-1.302,-1.302 -2.603,-3.905 -3.905,-5.206l-1.301,-2.603l1.301,0c1.302,-1.302 3.905,-1.302 6.508,-2.603c3.905,-1.302 5.206,-1.302 6.508,1.301c1.301,1.302 2.603,3.905 2.603,5.206l0,3.905l-2.603,-1.302l-2.603,0l-1.302,1.302l-1.301,2.603l-3.905,-2.603Zm22.126,-1.302c-1.302,0 -2.603,-1.301 -2.603,-2.603l-1.302,-1.301l3.905,0c1.301,-1.302 2.603,0 3.904,1.301l1.302,1.302l-1.302,1.301l-3.904,0Zm-462.039,-1.301l0,-2.603l3.904,0l1.302,-2.603c0,-2.603 1.301,-3.905 1.301,-3.905l1.302,-1.302l0,9.111l-2.603,0c-1.302,1.302 -2.603,1.302 -3.905,2.603l-1.301,0l0,-1.301Zm255.097,-3.905l-1.301,-1.301l2.603,-2.603l2.603,-2.604l1.301,0l0,1.302l-1.301,2.603c-1.302,3.905 -2.603,5.206 -3.905,2.603Zm-147.071,-1.301l-1.302,0l0,-2.603l0,-1.302l2.603,0l2.603,2.603l0,2.603l-1.301,0c0,0 -1.302,0 -2.603,-1.301Zm157.483,0c-1.301,0 -1.301,-2.603 0,-2.603l0,-2.604l2.604,0l0,5.207l-1.302,1.301l-1.302,0l0,-1.301Zm212.148,-1.302l0,-2.603l1.302,0c1.301,0 2.603,1.302 2.603,2.603l0,2.603l-1.302,0l-2.603,0l0,-2.603Zm-52.061,1.302c0,-1.302 -1.301,-18.222 0,-19.523l0,-1.302l3.905,0l0,1.302c0,0 0,1.301 -1.302,2.603c-1.301,0 -1.301,1.301 -1.301,1.301l0,1.302l7.809,0l-1.302,3.904c0,5.206 -3.904,10.413 -6.507,10.413l-1.302,0Zm5.206,-9.111l0,-1.302l-1.301,0l-1.302,0l0,2.603l2.603,0l0,-1.301Zm-374.837,6.508l0,-1.302l1.302,-1.302c0,-1.301 2.603,-1.301 3.904,-1.301l1.302,1.301l-1.302,2.604c-1.301,1.301 -3.904,1.301 -5.206,0Zm128.85,0l0,-3.905l1.302,-1.302l-1.302,-2.603l-1.301,-1.301l1.301,0c1.302,0 2.603,1.301 5.206,3.904l2.603,3.905l-1.301,1.302c0,1.301 -1.302,1.301 -2.603,1.301l-2.603,0l-1.302,-1.301Zm58.569,-2.604l-1.302,-2.603l5.206,0l0,3.905l-1.301,0l-2.603,0l0,-1.302Zm-115.835,-1.301l0,-3.905l0,-3.904l3.904,0l0,7.809l-1.301,0c-1.302,1.301 -2.603,1.301 -2.603,0Zm309.761,0c0,-2.603 1.301,-3.905 5.206,-2.603l2.603,0l0,3.904l-3.905,0l-3.904,0l0,-1.301Zm-238.178,-2.603l0,-2.603l3.905,0l0,-2.603l1.301,-2.603l1.302,0c0,0 2.603,1.301 3.904,3.904l3.905,2.603l-1.302,1.302l-1.301,1.301l-2.603,-1.301l-2.603,-1.302l-2.603,1.302c-1.302,1.301 -2.603,2.603 -2.603,2.603l-1.302,0l0,-2.603Zm-95.011,0l-1.301,-1.302l0,-2.603l1.301,-3.904l2.603,0l0,9.11c0,0 -1.301,0 -2.603,-1.301Zm37.744,0l0,-2.603l3.905,0l0,3.904l-1.302,0l-2.603,0l0,-1.301Zm409.979,0c-1.302,0 -1.302,-1.302 -1.302,-2.603l0,-1.302l2.603,1.302l1.302,0l0,3.904l-1.302,0c0,0 -1.301,0 -1.301,-1.301Zm-187.419,-3.905c-1.302,-3.904 -1.302,-3.904 2.603,-3.904l3.904,1.301l0,3.905l-2.603,0l-3.904,1.301l0,-2.603Zm-122.343,0c0,-2.603 3.905,-7.809 6.508,-7.809l1.301,0l0,2.603c0,1.302 -5.206,6.508 -6.507,6.508l-1.302,0l0,-1.302Zm-10.412,-2.603c1.302,-1.301 3.905,-2.603 6.508,-2.603l2.603,0l0,2.603c-1.302,0 -1.302,1.302 -1.302,2.603l-5.206,0l-5.206,0l2.603,-2.603Zm291.54,-2.603l0,-1.301l2.603,0l0,2.603l-1.301,0l-1.302,0l0,-1.302Zm-83.297,-2.603l-2.603,-2.603l0,-1.301l1.301,0l3.905,1.301l2.603,1.302l0,1.301c-1.301,2.603 -3.905,2.603 -5.206,0Zm92.408,1.302l0,-1.302l2.603,-1.301l2.603,0l0,1.301l-1.302,1.302c-1.301,1.301 -2.603,1.301 -2.603,1.301l-1.301,0l0,-1.301Zm-6.508,-2.603c0,-1.302 1.302,-2.603 1.302,-3.905l2.603,-1.301l1.301,2.603l1.302,1.301l-1.302,1.302c-1.301,1.301 -2.603,1.301 -3.904,1.301l-1.302,0l0,-1.301Zm-373.536,-1.302c-2.603,0 -3.904,-1.301 -3.904,-1.301l-1.302,-1.302l2.603,-1.301c0,-1.302 2.603,-2.603 3.905,-2.603l1.301,0l0,2.603l-1.301,2.603l2.603,0l0,2.603l-1.302,0c0,0 -1.301,0 -2.603,-1.302Zm75.488,-1.301l-2.603,-2.603l3.905,0l0,-5.206c0,-2.603 1.301,-6.508 1.301,-7.81l2.604,-2.603l-1.302,0l0,-1.301l3.905,0l-1.302,2.603c0,3.905 5.206,15.618 7.809,15.618l1.302,0l1.301,-2.603l1.302,-3.904l1.301,1.301l2.603,0l0,1.302c0,0 -1.301,2.603 -3.904,3.904c-5.206,5.206 -14.317,5.206 -18.222,1.302Zm102.82,1.301c-1.301,0 -1.301,-1.301 -1.301,-1.301l0,-1.302l5.206,0l0,3.905l-1.302,0c-1.301,0 -2.603,0 -2.603,-1.302Zm206.942,-5.206c-1.302,0 -1.302,-1.301 -1.302,-1.301l0,-1.302l2.603,0c0,-1.301 2.603,-1.301 2.603,0l1.302,0l-1.302,2.603l0,1.302l-1.301,0c-1.302,0 -2.603,0 -2.603,-1.302Zm-313.666,-3.904c0,-1.302 0,-3.905 -1.302,-3.905l0,-3.905l0,-2.603l-1.301,0l-1.302,0l-1.301,2.603c0,1.302 -2.603,3.905 -3.905,5.207l-2.603,2.603l-1.301,-5.206c-1.302,-3.905 -1.302,-3.905 1.301,-6.508c2.603,-2.603 11.714,-2.603 14.317,1.301l1.301,1.302l-1.301,1.301l0,6.508c0,1.302 0,3.905 -1.302,3.905l-1.301,1.301l0,-3.904Zm16.92,1.301c-1.302,0 -1.302,-1.301 -1.302,-2.603l0,-1.301l3.905,0l0,5.206l-1.302,0c0,0 -1.301,0 -1.301,-1.302Zm236.876,-2.603c-1.302,0 -1.302,-1.301 -1.302,-2.603l0,-1.301l3.905,0l0,1.301c1.302,3.905 -1.301,5.206 -2.603,2.603Zm-218.655,-1.301c0,0 0,-2.603 1.301,-2.603l0,-2.604l2.603,0l0,6.508l-1.301,0l-2.603,0l0,-1.301Zm210.846,-1.302l0,-1.301l2.603,2.603l-2.603,0l-1.302,0l1.302,-1.302Zm-387.853,-1.301l0,-2.604l-3.904,0l-5.206,0l0,-3.904l0,-3.905l1.301,1.302l1.302,0l-1.302,1.301l0,1.302l7.809,0l0,3.904l2.603,0l1.302,1.302l0,2.603l-1.302,0l-2.603,0l0,-1.301Zm61.172,-1.302c-1.302,0 -1.302,-1.302 -1.302,-1.302l0,-1.301l6.508,0l-1.302,2.603l0,1.302l-1.301,0c-1.302,0 -2.603,0 -2.603,-1.302Zm6.507,0c0,-1.302 1.302,-2.603 2.603,-2.603l2.603,0l0,1.301c0,1.302 -1.301,2.604 -2.603,2.604l-2.603,0l0,-1.302Zm314.968,0c1.301,-1.302 1.301,-2.603 2.603,-3.905l0,-2.603l3.904,0l0,2.603c0,1.302 -3.904,5.207 -5.206,5.207l-1.301,0l0,-1.302Zm-225.163,-1.302c-1.301,0 -1.301,-1.301 -1.301,-1.301l0,-1.302l5.206,0l0,3.905l-1.302,0c-1.301,0 -2.603,0 -2.603,-1.302Zm-97.614,-16.919c1.302,0 1.302,-2.603 1.302,-2.603l0,-1.302l3.904,0l0,1.302c0,0 0,2.603 -1.301,2.603l0,2.603l-2.603,0l-1.302,0l0,-2.603Zm307.159,0c0,0 1.301,-2.603 2.603,-3.905l2.603,-2.603l1.301,1.302l2.603,1.301l2.603,-1.301c3.905,-1.302 6.508,-1.302 6.508,1.301l0,1.302l-6.508,0c-3.904,1.301 -6.507,1.301 -7.809,2.603c0,1.301 -1.301,1.301 -2.603,1.301l-1.301,0l0,-1.301Zm-300.651,-2.603c0,-1.302 -1.302,-2.603 -1.302,-2.603l0,-1.302l3.905,0l0,5.206c0,0 -1.302,-1.301 -2.603,-1.301Zm-20.824,-5.206l-2.603,0l0,-2.603l0,-1.302l5.206,-1.301c2.603,0 5.206,-1.302 5.206,0l-1.302,2.603l-1.301,3.904l-1.302,0c-1.301,0 -2.603,0 -3.904,-1.301Zm18.221,-7.809l0,-2.604l1.301,0c1.302,0 2.603,1.302 3.905,2.604l1.301,1.301l-2.603,0l-3.904,0l0,-1.301Zm37.744,-23.428c0,0 0,-2.603 1.301,-2.603l1.302,-1.301l2.603,1.301l1.301,2.603l0,1.302c-1.301,1.301 -2.603,1.301 -3.904,1.301l-1.302,0l-1.301,-2.603Zm275.922,1.302l-2.603,0l2.603,-2.603c1.301,0 2.603,-1.302 3.904,-1.302l1.302,0l0,5.206l-1.302,0c-1.301,0 -2.603,0 -3.904,-1.301Zm-91.107,-3.905l0,-1.301l5.207,0l0,2.603l-2.604,0l-2.603,0l0,-1.302Zm2.603,-5.206c0,-2.603 3.905,-3.904 5.207,-2.603l1.301,0l-1.301,2.603c-1.302,0 -2.603,1.302 -3.905,1.302l-2.603,0l1.301,-1.302Zm49.458,-13.015l0,-5.206l-1.301,-3.905l2.603,0l0,2.603l3.904,0l0,1.302c0,2.603 -2.603,6.507 -3.904,6.507l-1.302,0l0,-1.301Zm-251.193,-2.603l0,-2.603l3.905,0l0,2.603c0,1.301 -1.302,2.603 -2.603,2.603l-1.302,0l0,-2.603Zm78.091,0l-3.904,0l0,-1.302l1.301,-1.301l9.111,0l1.301,1.301l0,2.603l-2.603,0c-1.301,0 -3.904,0 -5.206,-1.301Zm58.569,-2.603c0,0 1.301,-1.302 2.603,-2.603l1.301,-1.302l1.302,0l0,2.603l-1.302,2.603l-1.301,0l-2.603,0l0,-1.301Zm-173.102,-18.221l-1.302,-3.905l2.603,0c1.302,0 2.603,1.302 2.603,3.905l1.302,2.603l-1.302,0l-2.603,1.301l-1.301,-3.904Z" style="fill:#fff;fill-rule:nonzero;"/></g><path d="M444.973,584.421c-0.904,0 -2.109,-0.301 -2.711,-0.301c-1.807,-0.301 -6.927,-0.904 -8.432,-0.904c-0.603,0 -2.109,-0.301 -3.313,-0.602c-2.108,-0.301 -2.711,-0.301 -3.614,0c-0.904,0.301 -1.807,0.301 -4.819,0c-3.915,-0.301 -4.517,-0.602 -4.517,-2.409c0,-0.301 -0.301,-0.904 -0.301,-1.205l-0.302,-0.602l0,0.602l-0.301,0l-0.301,0l0,-1.205l0,-1.204l-0.301,0l-0.301,0l0,0.602l-0.301,0l-0.302,-1.205c0,-0.602 0,-1.204 -0.301,-1.505l-0.301,-0.302l0,0.603l-0.301,0l-0.301,0l0,-1.205c-0.301,-0.301 -0.603,-1.807 -1.205,-2.71c-0.903,-1.807 -0.903,-2.108 -0.602,-5.12c0,-1.807 0.301,-3.614 0.602,-3.915c0,-0.603 1.205,-2.108 2.409,-3.614c0.904,-1.205 1.807,-2.41 1.807,-2.711l-0.301,0.301l-0.301,0l0.904,-1.807c0.602,-0.903 1.204,-2.108 1.204,-2.409c0.301,-0.602 0.603,-1.204 1.205,-1.807l0.602,-0.903l-0.301,0l-0.301,0l0,-0.603l0,-0.602l-0.301,0.301l-0.603,0l0.603,-0.903l0.301,-1.205l-0.602,0l-0.302,0l0.603,-0.602l0.301,-0.603l-0.301,0l-0.301,0l0.602,-0.903l0.903,-0.904l-0.602,-0.301l-0.301,0l0.301,-0.602c0.301,-0.602 0.301,-1.506 0.301,-2.409c-0.602,-5.421 -0.903,-6.325 -0.903,-6.626l-0.301,0l0,0.602l-0.302,0l-0.301,0l0.301,-1.204c0.302,-0.603 0.302,-1.205 0.302,-1.506l0,-0.602l-0.603,0.903l-0.301,0.904l0,-2.41c0.301,-3.011 0.904,-8.131 1.506,-9.637c0.301,-0.602 0.301,-1.205 0.301,-1.205l-0.301,0.301l-0.301,0l0,-0.301c0,-0.301 0.602,-1.807 1.506,-3.313c0.602,-1.204 1.204,-2.71 1.204,-3.011l0,-0.602l-0.301,0.602l-0.301,0.602l0,-1.204c0.301,-0.603 0.903,-2.109 1.807,-3.313c1.204,-1.807 2.71,-5.722 2.71,-6.927l0,-0.301l0.301,0.301l0.302,0l0.602,-2.108c0.602,-0.904 1.205,-2.41 1.506,-2.711c0.301,-0.602 0.602,-1.204 0.301,-1.506c0,-0.301 0.301,-1.204 0.602,-1.806c0.301,-0.904 0.603,-1.506 0.603,-1.807l0,-0.302l-0.302,0.302l-0.301,0l0,-0.302c0.301,-0.301 0.301,-0.903 0.603,-1.204l0,-0.301l-0.302,0l-0.301,0.301l0.301,-0.603c0,-0.301 0.302,-1.204 0.904,-1.807l0.602,-1.505l-0.301,0l0.301,-0.302l0.603,-0.301l-0.603,0l-0.301,0l0.602,-0.903l0.302,-0.904l-0.302,0l-0.301,0l0,-1.506c0.301,-0.602 0.301,-1.807 0.603,-2.108c0.301,-0.301 0.301,-0.903 0.301,-0.903l0,-0.301l0.301,0.301l0.301,0l0.904,-0.904l0.903,-0.602l-0.301,-0.301l-0.301,-0.301l0.602,0l-0.301,-0.603l-0.301,-0.602l0.301,0.301l0.903,-0.903c0.603,-0.603 1.205,-0.904 1.205,-0.904l0.602,0l0,-0.301c0,0 -0.301,-0.301 -0.602,-0.602l-0.301,-0.301l0.903,-0.302l0.904,-0.301l-0.602,0l-0.302,0l0.904,-0.602l0.903,-0.301l-0.903,0l-0.602,0l0.301,-0.301c0.301,-0.302 0.602,-0.603 0.903,-0.603l0.603,0l0,-0.301c0,0 -0.302,-0.602 -0.603,-0.602l-0.602,-0.603l0.301,0c0.301,0 0.904,0.302 1.205,0.603l0.602,0.301l0,-0.301c0,0 -0.301,-0.603 -0.602,-0.904l-0.603,-0.301l1.506,0l1.807,0.301l-0.903,-0.602l-0.603,-0.602l0.603,0l0.903,-0.302l0,0.603l0.301,0.301l0.603,0l-0.302,-0.301l-0.301,-0.603l0.603,0l-0.302,-0.602c-0.301,-0.301 -0.602,-0.602 -0.602,-0.602l0,-0.301l0.904,0.602l0.602,0.301l0.301,0l0,-0.301l-0.301,-0.904l-0.602,-0.602l0.301,0l0.602,0.301l0,-0.602l0,-0.301l0.602,0.602c0.302,0.301 1.205,0.602 1.506,0.904l0.904,0.602l0,-1.205l-0.301,-1.204l0.903,0c0.301,0 0.602,0 0.904,0.301c0,0.301 0.301,0.301 0.301,0.301l0.301,0l-0.301,-0.602l-0.301,-0.302l0.602,0l0.602,0.302l0,-0.603c-0.301,-0.301 -0.301,-0.602 -0.602,-1.204l0,-0.603l1.205,1.205l0,-1.205l0.301,-0.903l0.602,1.204l0.301,-0.903l0.301,-0.904l0.603,0l0,0.302l0.301,0.602l0,-0.602l0,-0.603l0.903,0.301l0.603,0c0,-0.301 0,-0.602 -0.301,-0.903l-0.302,-0.602l0.302,0c0,0 0.301,0.301 0.903,0.602l0.602,0.301l0.302,-0.301l0.602,-0.301l-0.301,-0.301l0,-0.302l1.807,0l-0.301,-0.602c-0.302,0 -0.603,-0.602 -0.603,-0.602l0,-0.301l0.603,0.301c0.301,0.602 0.903,0.602 1.204,0.602l0.603,-0.301l0,-0.301l-0.302,-0.301l2.41,0l0,-0.301l0,-0.603l0.903,-0.301l0.602,0l0,-0.301c0,0 -0.301,-0.301 -0.301,-0.602l-0.301,-0.302l0.904,0.302l0.903,0l-0.301,-0.302l0,-0.602l0.903,0.301l0.603,0l0,-0.301l-0.301,-0.301l1.807,0l0,-0.301l-0.302,-0.301l1.506,0l0,-0.302l0,-0.301l1.807,0l-0.602,-0.301l-0.301,-0.301l0.602,-0.301l0.904,0l-0.302,-0.301l0,-0.302l0.603,0.302l0.903,0l0,-0.302l0,-0.301l-0.301,0l-0.301,0l0,-0.301c0.301,0 0.602,-0.301 1.205,-0.602l0.903,0l0,-0.603l0,-0.301l0.602,-0.301l0.603,0l-0.301,-0.602l0,-0.301l0.602,0l-0.301,-0.302l-0.603,-0.602l0.603,-0.602c0.602,-0.301 0.903,-0.603 0.903,-0.904c0,-0.301 0,-0.602 0.301,-0.602c0.302,-0.301 1.807,-3.313 1.807,-3.915c0,-0.301 0.302,-0.904 0.302,-1.506l0.301,-1.205l0.903,0l0,-0.301l0,-0.602l0.904,0c0.903,0 1.204,0 2.108,-0.602c0.602,0 1.204,-0.302 1.204,-0.302l0.302,0l0,0.603l0.602,0l0.602,-0.301l0,0.602l0.301,0.602l0.603,-0.301l0.301,0l0,0.301c0,0.301 0.301,1.205 0.602,1.506c0.301,0.602 0.603,1.807 0.603,2.71l0.602,1.506l1.506,0c2.108,0 2.71,0.301 3.614,2.711c0.301,1.204 0.903,2.108 0.903,2.409c0.301,0.602 1.205,1.205 2.41,1.506c0.602,0 1.505,0.602 2.108,1.205c0.903,1.204 1.505,1.505 2.108,1.204l0.602,0l0,0.301c0,0.603 1.807,2.41 5.722,5.722c1.205,1.205 2.41,2.41 3.313,4.217c0.904,1.506 2.409,3.313 3.313,4.216c5.722,5.421 7.83,7.228 9.637,8.433c0.904,0.903 1.807,1.807 2.108,2.409c0.301,0.903 -0.301,2.108 -1.506,2.71c-0.602,0.302 -1.807,1.205 -2.409,2.109c-0.903,0.903 -1.807,1.505 -2.108,1.505l-0.301,0l0,0.904l0.301,0c0.301,0 0.602,0.301 0.903,0.301l0.302,0.602l-0.302,0.603c-0.602,1.506 -1.807,1.506 -8.733,1.506c-5.421,0 -6.626,0 -8.132,0.602c-1.506,0.301 -1.807,0.602 -2.409,2.108c-0.602,0.904 -1.205,1.807 -1.205,1.807l-0.602,0.301l0.301,0.603l0,0.602l-0.602,0l-0.603,-0.301l0,1.204l-0.301,0l-0.602,0l0,0.904l-0.301,0l-0.301,0l0,1.204l-0.301,-0.602l-0.302,-0.301l0,0.602c-0.602,1.506 -0.301,2.711 0.302,3.313c0.301,0.301 0.602,0.602 0.301,0.904c0,0.301 0.301,0.903 0.602,1.807l0.903,0.903l-0.301,0.301l0,0.301l-0.301,-0.602l0,-0.301l-0.301,0l-0.301,0l0.602,0.903c0.301,0.904 0.602,1.807 0.602,3.916c0.302,1.204 0.603,3.312 0.603,3.915c0.301,0.903 0.602,2.108 0.602,2.409c0,0.602 0.301,1.205 0.602,1.807l0.302,0.602l-0.603,0l-0.602,-0.301l0,0.301c0,0 0.301,0.603 0.301,1.205l0.301,1.205l0.904,-0.302l0.903,0l-0.602,0.302l-0.301,0.602l0.903,0c0.603,0 1.205,0.301 1.807,0.301l0.603,0.602l-0.603,0l-0.301,0l0.301,0.603l0,0.301l0.301,0c0.603,0 2.109,1.506 2.109,2.108c0,0 0.602,0.602 1.204,1.205c0.603,0.903 1.205,1.506 1.205,1.506l0,0.301l-0.602,0l-0.302,0l0.603,0.301l0.602,0.602l-0.602,0l-0.301,0l0.602,0.603c0.301,0.301 0.602,0.602 0.602,0.903l0,0.301l-0.301,0l-0.301,0l0.301,0.603c0.301,0.301 0.301,0.903 0.602,1.204c0,0.301 0,0.904 0.302,1.205l0,1.506c0,0.301 0.301,0.903 0.602,1.204l0.301,0.603l0.602,0l0.302,-0.302l0,0.302c0,0.301 -0.302,0.903 -0.603,0.903l-0.301,0.602l0.602,0.904c0.302,0.602 0.603,1.205 0.603,1.506l0,0.301l-0.603,-0.301l-0.301,-0.301l0,0.602c0.301,0.301 0.301,0.602 0.603,0.903l0,0.603l-0.302,0.301l-0.602,0l0.301,0.602c0.301,0.301 0.301,0.603 0.301,0.603l0,0.301l-0.301,-0.301l-0.602,0l0.301,0.903l0,1.205l-0.301,0l-0.301,0l0.301,0.903c0.301,0.301 0.301,0.904 0.301,1.205l0,0.301l-0.301,0l-0.301,-0.301l0.301,1.205l0,1.204l-0.301,-0.602l-0.603,-0.602c0,0 0.302,0.602 0.603,1.204c0,0.603 0.301,1.506 0.301,2.108l0,0.904l-0.301,0l-0.603,0l-0.301,1.204c-0.301,0.904 -0.301,1.506 0,2.711l0.301,1.506l-0.301,0l-0.301,0l0,1.807l-0.301,0l-0.602,0l0.301,0.903l0,1.205l-0.603,-0.301l-0.602,0l0.301,0.602l0,0.602l-0.602,-0.301l-0.602,-0.301l-0.302,0.301c0,0.301 -0.301,1.205 -0.301,2.41c0,1.204 -0.301,2.108 -0.301,2.409l0,0.602l0.301,-0.301l0.603,0l-0.302,0.301l0,0.301l1.506,0.302c0.603,0.301 2.108,0.602 3.313,0.903c1.506,0 2.108,0.301 3.012,1.205c1.506,1.505 1.506,2.71 0.301,4.216c-0.904,0.602 -1.506,0.903 -2.409,1.205c-0.904,0 -2.109,0.301 -3.012,0.602c-1.807,0.301 -3.012,0.301 -6.927,-0.602l-0.602,0l-0.301,0.903c-0.603,1.205 -1.205,1.807 -2.711,2.108c-0.602,0.301 -1.506,0.904 -1.807,1.205l-0.602,0.602l-0.301,-0.301l0,-0.602l-0.301,0c-0.302,0 -0.603,0.301 -1.205,0.903l-0.602,0.904l0,-0.603l0,-0.602l-1.807,0c-1.506,0 -1.807,0 -2.41,0.602l-0.903,0.904l0.301,-0.904l0,-0.903l-0.602,0c-0.302,0 -1.506,-0.301 -3.012,-0.602c-1.506,-0.603 -3.012,-0.904 -3.313,-0.904c-0.301,0 -1.205,-0.301 -2.108,-0.903l-1.205,-0.904l-0.301,0.301c-0.301,0.301 -0.301,1.205 -0.602,1.807c0,1.506 -0.602,1.807 -2.409,2.711c-1.205,0.301 -1.506,0.301 -4.217,0c-3.915,-0.904 -7.83,-0.904 -9.336,-0.904l-1.506,0.301l0.302,0.302c0,0.301 0.301,0.602 0.301,0.903l0,0.602l-0.603,0c0,0.302 -1.204,0.302 -2.108,0.302c-1.204,0 -2.71,0.301 -3.313,0.602c-1.505,0.301 -6.625,0.602 -8.733,0.301Z" style="fill:#fff;fill-rule:nonzero;"/></g></svg>